<svg id="Layer_1" data-name="Layer 1" xmlns="http://www.w3.org/2000/svg" viewBox="0 0 262.39 38.5"><defs><style>.cls-1,.cls-5{fill:#fff;}.cls-2{fill:#ed1a3b;}.cls-3{fill:#004fa3;}.cls-4{fill:none;stroke-width:0.4px;}.cls-4,.cls-5{stroke:#fff;}.cls-5{stroke-width:0.27px;}</style></defs><title>crest-logotype</title><rect class="cls-1" y="4.8" width="27.27" height="27.95"/><rect class="cls-2" x="13.62" y="6.71" width="11.74" height="24.29"/><polygon class="cls-3" points="14.82 31.04 1.97 31 1.97 6.71 13.69 6.71 13.69 29.5 14.82 31.04"/><path class="cls-1" d="M452,47.12v0.32c2.8,0.28,3,1.51,3,4.2v2.23c0,2.59.42,7-3.9,7-5.48,0-4.84-5.47-4.84-5.87V50.6c0-2.33.26-2.76,2.88-3.16V47.12H442v0.32c2.4,0.34,2.42,1,2.48,3.16v4.75c0,1.7-.64,6.45,5.56,6.45,4.44,0,5.54-2.78,5.6-5.52l0.12-4.64c0.08-2.8.2-4,2-4.2V47.12H452Z" transform="translate(-431.84 -29.91)"/><path class="cls-1" d="M443.86,53.09V52.7c-3.74-.57-3.35-1.43-1.23-6.78l2.9-7.38,3.94,10.06c0.64,1.64,1.77,3.73-1.7,4.09v0.39h7.8V52.7c-2.19-.26-2.76-1.93-3.49-3.83l-5.56-14.1h-0.34l-4.7,11.89c-1.53,3.78-2.24,5.84-4.55,6v0.39h6.94Z" transform="translate(-431.84 -29.91)"/><line class="cls-4" x1="34.84" x2="34.84" y2="38.5"/><path class="cls-1" d="M482.88,43.94c-0.16-.49-0.25-0.56-0.91-0.56h-3.36a0.66,0.66,0,0,0-.85.53L477,46.25a8.52,8.52,0,0,0-.49,1.85c0,0.27.11,0.4,0.65,0.45l0.73,0.07a0.36,0.36,0,0,1,0,.56c-0.58,0-1.27,0-2.32-.07-0.73,0-1.54,0-2.14.07a0.44,0.44,0,0,1,0-.56l0.73-.07a1.48,1.48,0,0,0,1.34-1.09c0.4-1,1-2.47,2-5l2.27-6A3.19,3.19,0,0,0,480,34.9a2.5,2.5,0,0,0,1.16-.85,0.32,0.32,0,0,1,.33.2c0.29,1,.65,2,1,3l3.05,9c0.65,1.91.94,2.25,1.89,2.36l0.6,0.07a0.44,0.44,0,0,1,0,.56c-0.91,0-1.69-.07-2.69-0.07s-1.91,0-2.56.07a0.37,0.37,0,0,1,0-.56l0.65-.07c0.47,0,.78-0.18.78-0.4a4.57,4.57,0,0,0-.29-1.18Zm-4.41-2c-0.18.51-.16,0.53,0.47,0.53h2.74c0.65,0,.69-0.09.49-0.69L481,38.17a14.58,14.58,0,0,0-.51-1.4h0a13.65,13.65,0,0,0-.53,1.31Z" transform="translate(-431.84 -29.91)"/><path class="cls-1" d="M495.11,44c0.44,0.9.86,1.77,1.32,2.61h0c0.52-.9,1-1.89,1.47-2.86l1.79-3.64a10.74,10.74,0,0,0,1.45-3.66c0.65,0.06,1,.06,1.43.06s1.11,0,1.7-.06a0.4,0.4,0,0,1,0,.48l-0.4,0c-1.2.13-1.35,0.48-1.34,1.81,0,2,.06,5.55.21,8.3,0.06,1,0,1.45.93,1.54l0.61,0.06a0.35,0.35,0,0,1,0,.48c-0.78,0-1.56-.06-2.25-0.06s-1.53,0-2.31.06a0.35,0.35,0,0,1,0-.48l0.55-.06c0.94-.1.94-0.4,0.94-1.62l-0.06-8h0c-0.13.21-.86,1.74-1.24,2.48l-1.7,3.34c-0.86,1.68-1.72,3.47-2.06,4.35a0.22,0.22,0,0,1-.19.08,0.23,0.23,0,0,1-.17-0.08c-0.32-1-1.24-2.88-1.68-3.82l-1.72-3.68c-0.4-.88-0.8-1.87-1.22-2.75h0c-0.08,1.18-.13,2.29-0.19,3.4s-0.13,2.86-.13,4.48c0,1.41.11,1.72,0.86,1.77l0.72,0.06a0.33,0.33,0,0,1,0,.48c-0.65,0-1.39-.06-2.12-0.06s-1.3,0-1.95.06a0.38,0.38,0,0,1,0-.48l0.42-.06c0.8-.1,1.07-0.23,1.18-1.56s0.21-2.31.32-4.2c0.1-1.58.17-3.21,0.21-4.25,0-1.2-.11-1.45-1.28-1.64l-0.31,0a0.36,0.36,0,0,1,.08-0.48c0.57,0,1,.06,1.51.06s1,0,1.58-.06a7.29,7.29,0,0,0,1,3.15Z" transform="translate(-431.84 -29.91)"/><path class="cls-1" d="M507.53,39.37c0-2,0-2.27-1.16-2.4l-0.31,0a0.38,0.38,0,0,1,0-.48c0.82,0,1.47.06,2.25,0.06h3.59a25.51,25.51,0,0,0,2.58-.06,21.48,21.48,0,0,1,.31,2.54,0.38,0.38,0,0,1-.48,0c-0.29-.9-0.46-1.56-1.45-1.81A9.12,9.12,0,0,0,511,37.1h-1.37c-0.57,0-.57,0-0.57.76v3.82c0,0.53.06,0.53,0.63,0.53h1.11a7.09,7.09,0,0,0,1.62-.11,0.68,0.68,0,0,0,.46-0.67l0.15-.78a0.38,0.38,0,0,1,.5,0c0,0.46-.08,1.2-0.08,1.93s0.08,1.41.08,1.83a0.38,0.38,0,0,1-.5,0l-0.17-.74A0.82,0.82,0,0,0,512.3,43a6.4,6.4,0,0,0-1.47-.1h-1.11c-0.57,0-.63,0-0.63.52v2.69a3.12,3.12,0,0,0,.36,2c0.23,0.23.63,0.44,2.31,0.44a5.59,5.59,0,0,0,2.44-.29,4.79,4.79,0,0,0,1.35-1.85,0.35,0.35,0,0,1,.48.13,16.63,16.63,0,0,1-.86,2.65c-1.72,0-3.41-.06-5.11-0.06h-1.72c-0.82,0-1.47,0-2.59.06a0.37,0.37,0,0,1,0-.48l0.63-.06c1.09-.1,1.18-0.38,1.18-2.38V39.37Z" transform="translate(-431.84 -29.91)"/><path class="cls-1" d="M518.67,39.39c0-1.81-.06-2.14-0.84-2.23l-0.61-.08a0.32,0.32,0,0,1,0-.48c1.07-.1,2.38-0.15,4.25-0.15a6.76,6.76,0,0,1,3.19.57,2.84,2.84,0,0,1,1.58,2.67,3.53,3.53,0,0,1-2.38,3.19,0.44,0.44,0,0,0,.1.46,20.58,20.58,0,0,0,3.83,5.07,2.29,2.29,0,0,0,1.32.53,0.16,0.16,0,0,1,0,.27,3,3,0,0,1-.84.1c-1.62,0-2.59-.48-3.95-2.4-0.5-.71-1.28-2-1.87-2.88a1.36,1.36,0,0,0-1.35-.61c-0.86,0-.9,0-0.9.42v2.4c0,2,0,2.23,1.14,2.38l0.4,0.06a0.37,0.37,0,0,1,0,.48c-0.86,0-1.51-.06-2.27-0.06s-1.49,0-2.38.06a0.37,0.37,0,0,1,0-.48l0.48-.06c1.11-.13,1.14-0.38,1.14-2.38V39.39Zm1.56,2.73a1.5,1.5,0,0,0,.06.63,3.49,3.49,0,0,0,1.32.1,3.2,3.2,0,0,0,2-.5,2.74,2.74,0,0,0,1-2.37A2.81,2.81,0,0,0,521.48,37c-1.18,0-1.24.08-1.24,0.61v4.46Z" transform="translate(-431.84 -29.91)"/><path class="cls-1" d="M531,39.41c0-2,0-2.35-1.16-2.44l-0.48,0a0.38,0.38,0,0,1,0-.48c1,0,1.6.06,2.4,0.06s1.41,0,2.37-.06a0.38,0.38,0,0,1,0,.48l-0.48,0c-1.13.1-1.16,0.42-1.16,2.44V46.2c0,2,0,2.29,1.16,2.42l0.48,0.06a0.37,0.37,0,0,1,0,.48c-1,0-1.6-.06-2.37-0.06s-1.45,0-2.4.06a0.37,0.37,0,0,1,0-.48l0.48-.06c1.13-.13,1.16-0.4,1.16-2.42V39.41Z" transform="translate(-431.84 -29.91)"/><path class="cls-1" d="M538.23,37.83a8.22,8.22,0,0,1,5.15-1.62,14.73,14.73,0,0,1,3.38.46,1.43,1.43,0,0,0,.53.08c0,0.44.11,1.64,0.27,2.8a0.4,0.4,0,0,1-.52,0c-0.29-1.3-1.14-2.79-3.91-2.79-2.92,0-5.4,1.85-5.4,5.8s2.54,6.22,5.67,6.22a4.07,4.07,0,0,0,4-2.73,0.4,0.4,0,0,1,.5.08,7.17,7.17,0,0,1-.92,2.61,3.86,3.86,0,0,0-.67.19,11.22,11.22,0,0,1-3,.44,8.35,8.35,0,0,1-4.75-1.28,6.15,6.15,0,0,1-2.71-5.25A6.34,6.34,0,0,1,538.23,37.83Z" transform="translate(-431.84 -29.91)"/><path class="cls-1" d="M556,44.68c-0.13-.42-0.21-0.48-0.78-0.48h-2.88a0.57,0.57,0,0,0-.73.46l-0.67,2a7.31,7.31,0,0,0-.42,1.58c0,0.23.1,0.34,0.55,0.38l0.63,0.06a0.31,0.31,0,0,1,0,.48c-0.5,0-1.09,0-2-.06-0.63,0-1.32,0-1.83.06a0.37,0.37,0,0,1,0-.48l0.63-.06a1.27,1.27,0,0,0,1.14-.93c0.34-.88.88-2.12,1.68-4.25l1.95-5.15a2.74,2.74,0,0,0,.33-1.35,2.14,2.14,0,0,0,1-.72,0.27,0.27,0,0,1,.29.17c0.25,0.84.55,1.72,0.84,2.56l2.61,7.67c0.55,1.64.8,1.93,1.62,2l0.51,0.06a0.37,0.37,0,0,1,0,.48c-0.78,0-1.45-.06-2.31-0.06s-1.64,0-2.19.06a0.32,0.32,0,0,1,0-.48l0.55-.06c0.4,0,.67-0.15.67-0.34a3.93,3.93,0,0,0-.25-1ZM552.25,43c-0.15.44-.13,0.46,0.4,0.46H555c0.55,0,.59-0.08.42-0.59l-1-3.11a12.34,12.34,0,0,0-.44-1.2h0a11.88,11.88,0,0,0-.46,1.13Z" transform="translate(-431.84 -29.91)"/><path class="cls-1" d="M572.86,45.86c0,0.57,0,2.84.06,3.34a0.34,0.34,0,0,1-.36.21c-0.23-.32-0.78-1-2.44-2.88l-4.43-5c-0.52-.59-1.81-2.16-2.21-2.58h0a4.83,4.83,0,0,0-.1,1.24v4.16a15.82,15.82,0,0,0,.34,3.95,1.29,1.29,0,0,0,1,.36l0.59,0.06a0.35,0.35,0,0,1,0,.48c-0.86,0-1.53-.06-2.23-0.06s-1.32,0-2,.06a0.35,0.35,0,0,1,0-.48l0.52-.06a1,1,0,0,0,.84-0.38,18.42,18.42,0,0,0,.25-3.93V38.8a1.75,1.75,0,0,0-.42-1.37A2.07,2.07,0,0,0,561,37l-0.32,0a0.33,0.33,0,0,1,0-.48c0.8,0.06,1.81.06,2.16,0.06a6.14,6.14,0,0,0,.88-0.06,27.41,27.41,0,0,0,3.26,4.2l1.85,2.08c1.3,1.49,2.25,2.54,3.15,3.45h0a1.94,1.94,0,0,0,.08-0.8V41.3c0-.9,0-3.38-0.38-3.95a1.72,1.72,0,0,0-1.18-.38l-0.32,0a0.32,0.32,0,0,1,0-.48c0.88,0,1.53.06,2.25,0.06s1.32,0,2-.06a0.34,0.34,0,0,1,0,.48l-0.27,0a1.67,1.67,0,0,0-1.07.4,15.36,15.36,0,0,0-.29,3.93v4.56Z" transform="translate(-431.84 -29.91)"/><path class="cls-1" d="M593.33,40c0-1.38,0-3.94-.42-4.61a1.38,1.38,0,0,0-1.11-.47l-0.56,0a0.4,0.4,0,0,1,0-.53c0.85,0,1.67.07,2.54,0.07s1.54,0,2.34-.07a0.39,0.39,0,0,1,0,.53l-0.53,0a1.27,1.27,0,0,0-1.11.53,18.74,18.74,0,0,0-.31,4.54v2.52c0,1.94-.31,4-1.56,5.32a5.86,5.86,0,0,1-4.25,1.63,6.32,6.32,0,0,1-4.16-1.22c-1.18-1-1.74-2.6-1.74-5.25V37.73c0-2.32,0-2.69-1.34-2.81l-0.56,0a0.41,0.41,0,0,1,0-.53c1.11,0,1.87.07,2.76,0.07s1.65,0,2.74-.07a0.41,0.41,0,0,1,0,.53l-0.53,0c-1.29.11-1.34,0.49-1.34,2.81v4.81c0,3.58,1.11,5.94,4.52,5.94,3.23,0,4.45-2.54,4.45-5.92V40Z" transform="translate(-431.84 -29.91)"/><path class="cls-1" d="M609.17,45.86c0,0.57,0,2.84.06,3.34a0.34,0.34,0,0,1-.36.21c-0.23-.32-0.78-1-2.44-2.88l-4.43-5c-0.51-.59-1.81-2.16-2.21-2.58h0a4.82,4.82,0,0,0-.1,1.24v4.16a15.77,15.77,0,0,0,.34,3.95,1.29,1.29,0,0,0,1,.36l0.59,0.06a0.35,0.35,0,0,1,0,.48c-0.86,0-1.53-.06-2.23-0.06s-1.32,0-2,.06a0.35,0.35,0,0,1,0-.48l0.51-.06a1,1,0,0,0,.84-0.38,18.42,18.42,0,0,0,.25-3.93V38.8a1.75,1.75,0,0,0-.42-1.37,2.07,2.07,0,0,0-1.18-.46l-0.33,0a0.33,0.33,0,0,1,0-.48c0.8,0.06,1.81.06,2.16,0.06a6.14,6.14,0,0,0,.88-0.06,27.35,27.35,0,0,0,3.26,4.2l1.85,2.08c1.3,1.49,2.25,2.54,3.15,3.45h0a1.94,1.94,0,0,0,.08-0.8V41.3c0-.9,0-3.38-0.38-3.95a1.72,1.72,0,0,0-1.18-.38l-0.32,0a0.32,0.32,0,0,1,0-.48c0.88,0,1.53.06,2.25,0.06s1.32,0,2-.06a0.34,0.34,0,0,1,0,.48l-0.27,0a1.68,1.68,0,0,0-1.07.4,15.41,15.41,0,0,0-.29,3.93v4.56Z" transform="translate(-431.84 -29.91)"/><path class="cls-1" d="M613.85,39.41c0-2,0-2.35-1.16-2.44l-0.48,0a0.37,0.37,0,0,1,0-.48c1,0,1.6.06,2.4,0.06s1.41,0,2.37-.06a0.37,0.37,0,0,1,0,.48l-0.48,0c-1.13.1-1.16,0.42-1.16,2.44V46.2c0,2,0,2.29,1.16,2.42l0.48,0.06a0.37,0.37,0,0,1,0,.48c-1,0-1.6-.06-2.37-0.06s-1.45,0-2.4.06a0.37,0.37,0,0,1,0-.48l0.48-.06c1.13-.13,1.16-0.4,1.16-2.42V39.41Z" transform="translate(-431.84 -29.91)"/><path class="cls-1" d="M619.76,38.53c-0.44-1.07-.73-1.47-1.55-1.56l-0.34,0a0.32,0.32,0,0,1,0-.48c0.55,0,1.16.06,2,.06s1.51,0,2.31-.06a0.33,0.33,0,0,1,0,.48L622,37c-0.72.1-.88,0.21-0.9,0.36A23.89,23.89,0,0,0,622,40c0.88,2.21,1.76,4.41,2.71,6.58,0.59-1.26,1.41-3.22,1.83-4.24,0.57-1.3,1.45-3.45,1.77-4.27a2,2,0,0,0,.17-0.74c0-.13-0.19-0.29-0.86-0.36l-0.34,0a0.33,0.33,0,0,1,0-.48c0.53,0,1.26.06,2,.06s1.22,0,1.85-.06a0.37,0.37,0,0,1,0,.48l-0.57,0a1.22,1.22,0,0,0-1,.67A45.92,45.92,0,0,0,627.51,42l-1,2.35c-0.76,1.75-1.66,4-2,5a0.38,0.38,0,0,1-.21.06,0.76,0.76,0,0,1-.29-0.06,19.06,19.06,0,0,0-.88-2.54Z" transform="translate(-431.84 -29.91)"/><path class="cls-1" d="M633.2,39.37c0-2,0-2.27-1.16-2.4l-0.3,0a0.38,0.38,0,0,1,0-.48c0.82,0,1.47.06,2.25,0.06h3.59a25.51,25.51,0,0,0,2.58-.06,21.63,21.63,0,0,1,.31,2.54,0.38,0.38,0,0,1-.48,0c-0.29-.9-0.46-1.56-1.45-1.81a9.11,9.11,0,0,0-1.85-.11h-1.37c-0.57,0-.57,0-0.57.76v3.82c0,0.53.06,0.53,0.63,0.53h1.11a7.1,7.1,0,0,0,1.62-.11,0.68,0.68,0,0,0,.46-0.67l0.15-.78a0.38,0.38,0,0,1,.5,0c0,0.46-.08,1.2-0.08,1.93s0.08,1.41.08,1.83a0.38,0.38,0,0,1-.5,0l-0.17-.74A0.81,0.81,0,0,0,638,43a6.4,6.4,0,0,0-1.47-.1h-1.11c-0.57,0-.63,0-0.63.52v2.69a3.12,3.12,0,0,0,.36,2c0.23,0.23.63,0.44,2.31,0.44a5.59,5.59,0,0,0,2.44-.29,4.8,4.8,0,0,0,1.35-1.85,0.35,0.35,0,0,1,.48.13,16.57,16.57,0,0,1-.86,2.65c-1.72,0-3.41-.06-5.11-0.06H634c-0.82,0-1.47,0-2.59.06a0.37,0.37,0,0,1,0-.48l0.63-.06c1.09-.1,1.18-0.38,1.18-2.38V39.37Z" transform="translate(-431.84 -29.91)"/><path class="cls-1" d="M644.34,39.39c0-1.81-.06-2.14-0.84-2.23l-0.61-.08a0.32,0.32,0,0,1,0-.48c1.07-.1,2.38-0.15,4.25-0.15a6.75,6.75,0,0,1,3.19.57,2.84,2.84,0,0,1,1.58,2.67,3.53,3.53,0,0,1-2.38,3.19,0.44,0.44,0,0,0,.1.46,20.61,20.61,0,0,0,3.84,5.07,2.29,2.29,0,0,0,1.32.53,0.16,0.16,0,0,1,0,.27,3,3,0,0,1-.84.1c-1.62,0-2.6-.48-3.95-2.4-0.5-.71-1.28-2-1.87-2.88a1.36,1.36,0,0,0-1.36-.61c-0.86,0-.9,0-0.9.42v2.4c0,2,0,2.23,1.14,2.38l0.4,0.06a0.37,0.37,0,0,1,0,.48c-0.86,0-1.51-.06-2.27-0.06s-1.49,0-2.38.06a0.37,0.37,0,0,1,0-.48l0.48-.06c1.11-.13,1.14-0.38,1.14-2.38V39.39Zm1.56,2.73a1.51,1.51,0,0,0,.06.63,3.5,3.5,0,0,0,1.32.1,3.19,3.19,0,0,0,2-.5,2.73,2.73,0,0,0,1-2.37A2.81,2.81,0,0,0,647.14,37c-1.18,0-1.24.08-1.24,0.61v4.46Z" transform="translate(-431.84 -29.91)"/><path class="cls-1" d="M658.48,49.41a6,6,0,0,1-3-.71A8.78,8.78,0,0,1,655,46a0.33,0.33,0,0,1,.46-0.06,3.47,3.47,0,0,0,3.28,2.84,2.17,2.17,0,0,0,2.38-2.19A2.87,2.87,0,0,0,659.54,44l-1.81-1.18a4.07,4.07,0,0,1-2.06-3.28c0-1.81,1.41-3.28,3.89-3.28a6.54,6.54,0,0,1,1.77.25,3.75,3.75,0,0,0,.67.11,8.33,8.33,0,0,1,.34,2.33,0.38,0.38,0,0,1-.48.06,2.5,2.5,0,0,0-2.59-2.16A2,2,0,0,0,657,38.92a3,3,0,0,0,1.62,2.35l1.53,1a4.3,4.3,0,0,1,2.38,3.66C662.54,48,661,49.41,658.48,49.41Z" transform="translate(-431.84 -29.91)"/><path class="cls-1" d="M666,39.41c0-2,0-2.35-1.16-2.44l-0.48,0a0.38,0.38,0,0,1,0-.48c1,0,1.6.06,2.4,0.06s1.41,0,2.37-.06a0.38,0.38,0,0,1,0,.48l-0.48,0c-1.13.1-1.16,0.42-1.16,2.44V46.2c0,2,0,2.29,1.16,2.42l0.48,0.06a0.38,0.38,0,0,1,0,.48c-1,0-1.6-.06-2.37-0.06s-1.45,0-2.4.06a0.37,0.37,0,0,1,0-.48l0.48-.06c1.13-.13,1.16-0.4,1.16-2.42V39.41Z" transform="translate(-431.84 -29.91)"/><path class="cls-1" d="M677,46.24c0,2,0,2.27,1.14,2.38l0.61,0.06a0.37,0.37,0,0,1,0,.48c-1.09,0-1.74-.06-2.5-0.06s-1.43,0-2.65.06a0.33,0.33,0,0,1,0-.48l0.69-.06c1.09-.1,1.18-0.38,1.18-2.38V37.71c0-.59,0-0.61-0.57-0.61h-1a3.91,3.91,0,0,0-2.35.48,3.47,3.47,0,0,0-.86,1.32,0.37,0.37,0,0,1-.5-0.13,20.2,20.2,0,0,0,.72-2.84,0.48,0.48,0,0,1,.36,0c0.11,0.61.74,0.59,1.62,0.59h7.73c1,0,1.2,0,1.49-.53a0.35,0.35,0,0,1,.34.06,11.55,11.55,0,0,0-.29,2.9,0.36,0.36,0,0,1-.5,0,2.41,2.41,0,0,0-.48-1.39,3.8,3.8,0,0,0-2.21-.48h-1.35c-0.57,0-.55,0-0.55.65v8.49Z" transform="translate(-431.84 -29.91)"/><path class="cls-1" d="M689,46.2c0,2,.11,2.35,1.14,2.42l0.72,0.06a0.37,0.37,0,0,1,0,.48c-1.18,0-1.83-.06-2.59-0.06s-1.49,0-2.5.06a0.37,0.37,0,0,1,0-.48l0.59-.06c1.11-.11,1.14-0.38,1.14-2.42v-1a3.84,3.84,0,0,0-.61-2.37l-2.25-4.39c-0.65-1.26-.93-1.35-1.51-1.45l-0.53-.1a0.35,0.35,0,0,1,0-.48c0.61,0,1.3.06,2.21,0.06s1.56,0,2-.06a0.32,0.32,0,0,1,.06.48l-0.25,0c-0.67.11-.8,0.19-0.8,0.34a9.49,9.49,0,0,0,.59,1.47c0.71,1.41,1.41,2.92,2.16,4.23,0.59-1,1.22-2.12,1.79-3.22a17.41,17.41,0,0,0,1.24-2.52,1,1,0,0,0-.8-0.31l-0.34,0a0.32,0.32,0,0,1,0-.48c0.69,0,1.24.06,1.83,0.06s1.13,0,1.77-.06a0.32,0.32,0,0,1,0,.48l-0.53.1c-1,.15-1.56,1.37-2.52,3l-1.2,2.08a4.28,4.28,0,0,0-.9,3.09v1Z" transform="translate(-431.84 -29.91)"/><path class="cls-5" d="M654.32,61.58h0.88v0.8a1.18,1.18,0,0,1-.87,1.25v-0.4a0.76,0.76,0,0,0,.46-0.77h-0.47V61.58Z" transform="translate(-431.84 -29.91)"/><path class="cls-5" d="M486.8,62.46H486l-1.3-4.77h0l-1.31,4.77H482.6l-1.45-5.68h0.77L483,61.51h0l1.27-4.72h0.82l1.26,4.72h0l1.15-4.72h0.76Z" transform="translate(-431.84 -29.91)"/><path class="cls-5" d="M502.34,56.61h0.83l2.22,5.68h-0.83l-0.62-1.71h-2.4l-0.64,1.71h-0.78Zm-0.56,3.33h1.92l-0.95-2.65h0Z" transform="translate(-431.84 -29.91)"/><path class="cls-5" d="M521.55,58.45a1.24,1.24,0,0,0-1.41-1.16,1.06,1.06,0,0,0-1.27,1c0,0.7.91,0.8,1.82,1s1.81,0.52,1.81,1.64-1.18,1.69-2.22,1.69c-1.27,0-2.35-.62-2.35-2h0.72A1.44,1.44,0,0,0,520.31,62a1.18,1.18,0,0,0,1.44-1c0-.78-0.91-0.92-1.81-1.11s-1.82-.46-1.82-1.5a1.8,1.8,0,0,1,2.06-1.66,1.83,1.83,0,0,1,2.09,1.8h-0.72Z" transform="translate(-431.84 -29.91)"/><path class="cls-5" d="M535.81,56.79h0.76v2.44h3V56.79h0.76v5.68h-0.76v-2.6h-3v2.6h-0.76V56.79Z" transform="translate(-431.84 -29.91)"/><path class="cls-5" d="M553.58,56.79h0.75v5.68h-0.75V56.79Z" transform="translate(-431.84 -29.91)"/><path class="cls-5" d="M568,56.79h0.8l3,4.6h0v-4.6h0.72v5.68h-0.83l-3-4.55h0v4.55H568V56.79Z" transform="translate(-431.84 -29.91)"/><path class="cls-5" d="M589.73,61.76a2.22,2.22,0,0,1-1.82.84,2.72,2.72,0,0,1-2.7-2.86c0-1.65.91-3.08,2.7-3.08a2.2,2.2,0,0,1,2.44,1.88H589.6a1.54,1.54,0,0,0-1.69-1.25c-1.37,0-1.95,1.19-1.95,2.41A2,2,0,0,0,587.91,62a1.71,1.71,0,0,0,1.82-1.85h-1.81V59.47h2.49v3h-0.48Z" transform="translate(-431.84 -29.91)"/><path class="cls-5" d="M605.17,57.42h-1.89V56.79h4.54v0.64h-1.89v5h-0.76v-5Z" transform="translate(-431.84 -29.91)"/><path class="cls-5" d="M622.82,56.65a3,3,0,1,1-2.72,3A2.72,2.72,0,0,1,622.82,56.65Zm0,5.31a2.37,2.37,0,1,0-2-2.34A2.07,2.07,0,0,0,622.82,62Z" transform="translate(-431.84 -29.91)"/><path class="cls-5" d="M639,56.79h0.8l3,4.6h0v-4.6h0.72v5.68h-0.83l-3-4.55h0v4.55H639V56.79Z" transform="translate(-431.84 -29.91)"/><path class="cls-5" d="M669.44,56.79h1.95a2.42,2.42,0,0,1,2.73,2.7c0,1.9-.84,3-2.73,3h-1.95V56.79Zm0.75,5h1.26c0.52,0,1.91-.14,1.91-2.23,0-1.35-.5-2.17-1.89-2.17H670.2v4.4Z" transform="translate(-431.84 -29.91)"/><path class="cls-5" d="M686.79,58.5a1.5,1.5,0,0,0-1.59-1.21c-1.35,0-1.92,1.11-1.92,2.3S683.85,62,685.21,62a1.61,1.61,0,0,0,1.64-1.64h0.76a2.31,2.31,0,0,1-2.46,2.27c-1.76,0-2.62-1.3-2.62-3a2.69,2.69,0,0,1,2.69-3,2.17,2.17,0,0,1,2.34,1.84h-0.75Z" transform="translate(-431.84 -29.91)"/></svg>