<?xml version="1.0" encoding="utf-8"?>
<!-- Generator: Adobe Illustrator 19.2.0, SVG Export Plug-In . SVG Version: 6.00 Build 0)  -->
<svg version="1.1" id="Layer_1" xmlns="http://www.w3.org/2000/svg" xmlns:xlink="http://www.w3.org/1999/xlink" x="0px" y="0px"
	 viewBox="0 0 291.6 72.7" style="enable-background:new 0 0 291.6 72.7;" xml:space="preserve">
<style type="text/css">
	.st0{fill:#FFFFFF;}
</style>
<g>
	<path class="st0" d="M108.5,6.6H79.3v59.6h28.6c18.5-0.2,31.2-13.2,31.2-29.9C139.1,19.8,126.7,7.1,108.5,6.6z M107.9,56L107.9,56
		L90,56V16.9h18.1c11.7,0.3,19.4,8.5,19.4,19.6C127.5,47.7,119.8,55.8,107.9,56z"/>
	<polygon class="st0" points="63.6,17.1 63.6,6.6 4,6.6 4,17.1 28.4,17.1 28.4,55.8 4,55.8 4,66.3 63.6,66.3 63.6,55.8 39.1,55.8 
		39.1,17.1 	"/>
	<polygon class="st0" points="212.3,17.1 212.3,6.6 152.2,6.6 152.2,66.3 212.3,66.3 212.3,55.8 163,55.8 163,41.7 201.5,41.7 
		201.5,31.2 163,31.2 163,17.1 	"/>
	<path class="st0" d="M254.7,4c-18.1,0-32.8,14.5-32.8,32.4c0,17.9,14.7,32.4,32.8,32.4c18.1,0,32.8-14.5,32.8-32.4
		C287.4,18.5,272.8,4,254.7,4z M254.7,57.7c-11.8,0-21.5-9.5-21.5-21.2c0-11.7,9.6-21.2,21.5-21.2c11.8,0,21.5,9.5,21.5,21.2
		C276.1,48.2,266.5,57.7,254.7,57.7z"/>
</g>
</svg>
