<?xml version="1.0" encoding="utf-8"?>
<!-- Generator: Adobe Illustrator 18.1.1, SVG Export Plug-In . SVG Version: 6.00 Build 0)  -->
<svg version="1.1" id="Layer_1" xmlns="http://www.w3.org/2000/svg" xmlns:xlink="http://www.w3.org/1999/xlink" x="0px" y="0px"
	 viewBox="0 0 123.1 29" enable-background="new 0 0 123.1 29" xml:space="preserve">
<g>
	<path fill="#FFFFFF" d="M121.2,0.6L121.2,0.6L121.2,0.6c0,0-0.2,0-0.4,0c-0.9,0-1.8,0.5-1.8,1.9c-0.5,6.8-1.1,13.5-2,20l0,0
		c0,0,0,0,0,0c0,0,0,0,0,0l0,0c0.6-0.1,1,0,1.4,0.2l0,0c1-6.5,3.5-16.3,4.1-19.1c0.1-0.4,0.2-0.9,0.2-1.2
		C122.8,1.3,122.2,0.8,121.2,0.6z"/>
	<path fill="#FFFFFF" d="M56.2,3.3c0.2,3.5,0.3,7,0.3,10.5c-4.2,0.1-8.4,0.1-12.5,0c0-3.5,0.1-7,0.3-10.5c-1.2,0.3-2.5,0.3-3.7,0
		c0.3,7.5,0.3,15,0,22.4c1.2-0.3,2.5-0.3,3.7,0l0,0l0,0c-0.2-3.5-0.3-7-0.3-10.4c4.2-0.1,8.4-0.1,12.5,0c0,3.5-0.1,7-0.3,10.4l0,0
		l0,0c1.3-0.3,2.5-0.3,3.7,0c-0.3-7.5-0.3-14.9,0-22.4C58.7,3.6,57.4,3.6,56.2,3.3z"/>
	<path fill="#FFFFFF" d="M29.5,3.3L29.5,3.3L29.5,3.3c-0.9,0.3-1.7,0.3-2.6,0l0,0c-3,7.6-6.5,16.1-9.6,22.4c0,0,0,0,0,0l0,0l0,0
		c0,0,0,0,0,0l0,0l0,0c1.4-0.4,2.8-0.2,3.7,0c0,0,0,0,0,0l0,0c0.8-2,1.7-4.3,2.6-6.6l0,0c3.1-0.1,6.1-0.1,9.2,0l0,0
		c0.9,2.2,1.7,4.4,2.6,6.6l0,0c1.4-0.4,2.7-0.3,3.7,0l0,0C36.9,21.5,32.4,10.5,29.5,3.3z M28.2,7.1c1.2,3.5,2.6,6.9,4,10.4l0,0
		c-2.7,0.1-5.3,0.1-8,0l0,0C25.9,13.4,27.4,9.5,28.2,7.1z"/>
	<path fill="#FFFFFF" d="M22.8,0.3C22.8,0.3,22.8,0.3,22.8,0.3L22.8,0.3c-1.3,0.3-2.6,0.3-3.8,0c-1.1,2-5,8.4-7.5,12.5
		C9,8.6,6,3.7,4,0.3c-1.5,0.3-2.2,0.4-3.7,0c3.1,4.6,8,13.4,9.6,16.3l-0.2,12c0,0,1.1-0.2,1.8-0.2c0.8,0,1.8,0.2,1.8,0.2l-0.2-12
		C16.2,11.1,21.3,2.2,22.8,0.3z"/>
	<path fill="#FFFFFF" d="M73.1,3C65.2,3,61,8,61,14.5C61,21.7,65.6,26,73.1,26c8.2,0,12.1-4.9,12.1-11.4C85.3,7.3,80.5,3,73.1,3z
		 M73.2,24.7c-5.3,0-8.4-3.8-8.4-10.2c0-7.2,3.8-10.1,8.2-10.2c0.1,0,0.1,0,0.2,0c4.9,0,8.4,3.3,8.4,10.2
		C81.6,21.4,78,24.7,73.2,24.7z"/>
	<path fill="#FFFFFF" d="M100.5,1.6c-7.9,0-13.9,4.5-13.9,12.8c0,6.9,4,12.9,14,12.9c8.5,0,14-4.6,14-12.8
		C114.6,6.9,109.4,1.6,100.5,1.6z M90.3,14.4C90.3,5.6,95.7,3,100.5,3c5.9,0,10.3,3.6,10.3,11.6c0,8.6-5.3,11.4-10.3,11.4
		C95.2,26,90.3,22.9,90.3,14.4z"/>
	<path fill="#FFFFFF" d="M116.9,25.1c-1.2,0-1.8,0.9-1.8,1.9c0,1.1,0.9,1.7,2,1.7c0.8,0,1.7-0.5,1.7-1.8
		C118.9,25.8,118.1,25.1,116.9,25.1z"/>
</g>
</svg>
