<?xml version="1.0" encoding="utf-8"?>
<!-- Generator: Adobe Illustrator 18.1.1, SVG Export Plug-In . SVG Version: 6.00 Build 0)  -->
<svg version="1.1" id="Layer_1" xmlns="http://www.w3.org/2000/svg" xmlns:xlink="http://www.w3.org/1999/xlink" x="0px" y="0px"
	 viewBox="-30 159.5 160 41" enable-background="new -30 159.5 160 41" xml:space="preserve">
<g>
	<g>
		<g>
			<g>
				<g>
					<g>
						<g>
							<g>
								<g>
									<path fill="#FFFFFF" d="M76.9,181.1c0,0-0.7,0.5-2.3,1.6c-0.5,0.7-0.2,1.2,0.2,1.2C76,183.9,78.1,181.4,76.9,181.1z
										 M129.4,178.1c0.9,0.7,0.7,1.8-0.2,2.3c-2.5,1.6-5.8,3.2-8.3,4.2c-2.1,0.7-7.6,2.3-9.5,1.8c-0.2,0-1.2-0.2-1.2-1.2
										c0-1.6,1.4-1.4,2.8-2.8c1.4-1.4,1.4-1.6,1.6-2.1c-3.7,0-5.8,2.8-8.3,8.3c-1.4,2.8-3.2,8.1-3.5,9.9c-0.2,1.4-1.8,1.8-3,1.4
										c-1.4-0.7,0-3.2,0.9-5.3c2.3-4.9,4.6-10.4,6-12.7c-2.3,1.4-10.4,5.8-12.7,3.9c-1.8-1.4-0.7-3.2,0.2-4.9
										c-2.3,0-4.4-1.4-4.6-1.6c-3.2,4.6-8.3,3.7-9.5,3c-0.7,1.4-2.5,3.9-5.5,4.2c-2.3,0-2.5-2.3-2.5-2.8
										c-2.3,1.2-9.2,4.9-12.7,2.1c-2.8-2.3-1.8-7.2,2.1-13.4c4.4-6.9,8.3-8.5,10.6-7.4c3.2,1.8,2.1,6.7,0,9.7
										c-0.5,0.5-0.9,1.2-1.6,1.4c-0.2,0-0.9,0.2-1.4-0.2c-0.2-0.5-0.9-1.2-0.5-2.5c0,0,0.7,0,2.1-2.3l0.2-0.2
										c0.7-1.4,0.5-2.3,0-2.8c-0.7-0.7-2.5-0.7-6.7,5.8c-2.8,4.2-3.9,8.5-2.5,9.7c1.8,1.6,10.4-2.1,11.6-3.5
										c0.7-0.7,1.8-2.8,5.3-2.3c1.2,0.2,1.6,1.4,1.8,2.1c1.4,0.9,5.3,0.9,6.7-2.1c0.2-0.7,0.2-1.2,0-1.8c0.9-0.5,2.3-0.7,3,0.2
										c1.2,1.8,2.8,2.8,4.9,2.3c1.4-0.5,2.3-0.5,2.8,0.5c0.2,0.7,0.2,1.4-0.2,1.8c-0.7,0.7-2.1,2.3-1.6,2.8
										c0.5,0.5,6.9-1.8,12-6.2c0.2-0.2,0.5-0.7,0.5-1.8c1.2-0.5,3.2-0.2,3.5,0.9c0.2,0.9-0.5,1.8-0.7,2.3c2.3-0.9,4.6-1.4,6-0.5
										c2.3,1.6-0.9,4.6-2.3,5.5c4.4-0.9,8.5-2.8,11.6-5.3l0,0c0.4-0.5,0.9-0.9,0.9-0.9s0.9-0.2,1.8,0.2l0,0L129.4,178.1
										L129.4,178.1z M48.5,174.7c-0.5,1.2-1.2,1.6-2.8,1.2c-0.7-0.2-3-0.5-3.5,0.5c-0.9,2.3,1.8,4.9,3.9,7.2
										c0.5,0.5,0.7,1.4,0.5,2.1c-0.2,0.7-1.2,1.6-2.3,1.4c-1.6-0.2-5.8-0.9-7.4-0.9c-0.9,0-1.6-0.2-1.8-0.7
										c-0.2-0.5,0-1.4,0.5-1.8c0.5-0.5,0.9-0.9,1.6-0.9h-0.2l0,0h0.2c0,0,0.2,0.5,1.2,0.7c0.5,0,0.7,0.2,1.2,0.2l0,0
										c1.6,0.2,3.2,0.5,3.9,0.2c-0.2-0.2-1.4-1.4-2.3-2.5c-1.6-2.1-2.1-3.9-1.4-5.5c0.9-2.1,3.5-2.8,5.5-3
										C48.7,172.4,49.2,174,48.5,174.7z M-1.6,178.6c1.2-0.2,2.8-0.9,4.2-1.8c0.7-0.5,1.2-1.2,0.9-1.4C3,174.7-0.5,176-1.6,178.6
										z M37.9,180.4c-0.7,0.5-2.1,0.7-3.5,0.5c-3,0.7-4.2,0-4.6,0c-0.5,0-1.6,1.2-2.1,1.8c-0.5,0.7-3,3.9-5.1,3.9
										c-2.3,0-3-3.7-3-3.7s-2.5,3.7-4.9,3.7c-1.8,0-2.5-3.5-2.8-4.4c-0.5,0.2-6,4.2-10.6,4.4c-5.8,0.2-6.9-2.8-7.2-4.4
										c-1.4,0-2.3-0.2-2.8-0.5c-0.7-0.2-1.4-1.2-0.9-2.1c0.2-0.7,0.5-0.9,1.2-1.2c0,0,0,0.2,0.7,0.5s1.6,0.2,2.1,0
										c2.1-5.5,6.2-6.7,8.8-6.7c1.2,0,2.8,0.7,2.8,2.3c0,1.2-0.9,2.3-2.3,3.5c-1.2,0.9-3.2,2.3-6.5,3.5c0.2,0.9,0.7,2.8,4.4,2.5
										c3.2-0.2,6.7-2.5,8.3-3.7l0,0c0,0,1.6-1.2,1.8-2.1c0-0.2,0-0.2,0-0.5c0,0,0.9-0.5,1.6-0.2c1.8,0.2,1.6,2.3,1.6,2.3
										c0,1.4,0.5,3,1.2,3s1.8-1.6,3.5-3.5c0.5-0.5,0.7-1.8,1.6-1.8c1.2,0,1.6,0.9,1.6,1.8c0,2.1,0.2,3.9,0.9,3.9
										c0.7,0,2.3-1.8,3-2.8c1.4-1.8,1.8-2.5,3-2.5s1.6,0.7,3.2,0.7c1.8-0.2,2.3-0.7,2.8-0.9c0.7-0.2,1.8-0.2,2.5,0.5
										S38.8,180,37.9,180.4L37.9,180.4z M-0.5,163.1c-0.5,1.2-2.1,2.8-2.3,3.2c-4.2,5.3-9,15.2-10.6,19.4
										c-0.5,1.2-1.2,1.4-2.3,1.2c-1.4-0.2-1.4-0.7-1.4-2.3c-0.2-2.5-0.9-3.9-1.4-7.2c-0.2-1.6-0.5-3.9-0.5-5.8
										c-1.6,3.2-3.5,6.7-4.9,9.5c0,0.2-0.2,0.2-0.2,0.5c0,0.2-0.2,0.2-0.2,0.5c-0.5,0.7-0.7,1.4-0.9,1.8
										c-0.9,2.1-0.5,2.3-0.5,2.3s-0.2,0.2-0.2,0.5c-0.7,0.9-1.8,1.2-3.2,0.7c-1.4-0.5-0.5-1.8,0-3c0.2-0.2,3-5.1,5.1-8.8
										c0.5-0.7,2.8-5.3,3.2-6.5c0.5-1.2,0.5-1.6,0.5-2.5c0.7-0.2,1.8-0.2,2.5,0c0.9,0.2,1.2,1.2,1.2,1.6c0.2,1.4,0.2,4.2,0.5,6.9
										c0.2,3.2,1.4,6.9,1.4,6.9s3.5-8.3,8.3-15.9c0.7-0.9,1.8-3.2,2.8-4.2c0.7-0.9,1.8-1.4,3-0.5C-0.5,162-0.3,162.6-0.5,163.1"
										/>
								</g>
							</g>
						</g>
					</g>
				</g>
			</g>
		</g>
	</g>
</g>
</svg>
