<?xml version="1.0" encoding="utf-8"?>
<!-- Generator: Adobe Illustrator 18.1.1, SVG Export Plug-In . SVG Version: 6.00 Build 0)  -->
<svg version="1.1" id="Layer_1" xmlns="http://www.w3.org/2000/svg" xmlns:xlink="http://www.w3.org/1999/xlink" x="0px" y="0px"
	 viewBox="0 168.2 100 23.6" enable-background="new 0 168.2 100 23.6" xml:space="preserve">
<path fill="#FFFFFF" d="M51.5,182.7c14.3,0,28.1,3.7,38.6,8.9c0,0,0,0,0.3,0v-0.3C78.1,183.7,66.3,180,51.5,180s-27.9,3.5-40.6,11.5
	v0.3c0,0,0,0,0.3,0C22.2,186.2,37.2,182.7,51.5,182.7L51.5,182.7z"/>
<polygon fill="#FFFFFF" points="59.9,191.4 62.5,191.4 52.3,168.2 51.5,168.2 41.6,191.4 43.4,191.4 51.3,171.2 "/>
<polygon fill="#FFFFFF" points="33.3,178.3 33.3,183.8 31.1,183.8 31.1,178.5 24.6,168.6 27.1,168.6 32.5,177.8 38,168.6 
	39.7,168.6 "/>
<polygon fill="#FFFFFF" points="12.8,185.9 12.8,177.3 2.7,177.3 2.7,185.9 0.5,185.9 0.5,168.6 2.7,168.6 2.7,176.1 12.8,176.1 
	12.8,168.6 15.1,168.6 15.1,185.9 "/>
<polygon fill="#FFFFFF" points="78.8,169.9 78.8,168.6 65.1,168.6 65.1,169.9 71,169.9 71,184.7 73.2,184.7 73.2,169.9 "/>
<polygon fill="#FFFFFF" points="99,169.9 99,168.6 86.2,168.6 86.2,169.9 91.4,169.9 91.4,185.9 93.8,185.9 93.8,169.9 "/>
</svg>
