<?xml version="1.0" encoding="utf-8"?>
<!-- Generator: Adobe Illustrator 18.1.1, SVG Export Plug-In . SVG Version: 6.00 Build 0)  -->
<svg version="1.1" id="Layer_1" xmlns="http://www.w3.org/2000/svg" xmlns:xlink="http://www.w3.org/1999/xlink" x="0px" y="0px"
	 viewBox="0 0 165 26.7" enable-background="new 0 0 165 26.7" xml:space="preserve">
<g>
	<path fill="#4D4D4F" d="M53.2,6.4c-1,0-2,0.3-2.9,0.7c-0.8,0.5-1.5,1.2-1.9,2.1c-0.3-0.9-0.8-1.6-1.6-2.1C46,6.6,45,6.4,44,6.4
		c-1.2,0-2.3,0.3-3.1,0.8c-0.8,0.5-1.4,1.2-1.9,2.1V6.8h-1.9v15.3h2v-8.5c0-0.8,0.1-1.5,0.3-2.2c0.2-0.7,0.4-1.2,0.8-1.7
		c0.4-0.5,0.8-0.9,1.4-1.2c0.6-0.3,1.2-0.4,2-0.4c0.6,0,1.1,0.1,1.5,0.3c0.4,0.2,0.7,0.5,1,0.8c0.2,0.3,0.4,0.7,0.5,1.2
		c0.1,0.5,0.2,0.9,0.2,1.4v10.4h2v-8.7c0-0.7,0.1-1.4,0.2-2c0.1-0.6,0.3-1.2,0.6-1.7c0.3-0.5,0.7-0.9,1.2-1.2c0.5-0.3,1.2-0.4,2-0.4
		c1.3,0,2.2,0.3,2.7,1c0.5,0.6,0.8,1.6,0.8,2.8v10.3h2V11.8C58.3,8.2,56.6,6.4,53.2,6.4z"/>
	<path fill="#4D4D4F" d="M74.4,20.4c-0.7,0-1-0.3-1-1v-8.1c0-1-0.2-1.9-0.5-2.5c-0.3-0.6-0.8-1.2-1.3-1.5c-0.5-0.4-1.1-0.6-1.8-0.7
		c-1.6-0.3-3.2-0.2-4.4,0.1c-0.7,0.2-1.4,0.5-1.9,0.9c-0.5,0.4-1,1-1.3,1.6c-0.3,0.6-0.5,1.4-0.6,2.3l0,0.1h2l0-0.1
		c0-1.2,0.4-2.1,1.1-2.6c0.7-0.5,1.7-0.8,2.8-0.8c0.5,0,1.1,0,1.5,0.1c0.5,0.1,0.9,0.2,1.2,0.5c0.3,0.2,0.6,0.5,0.8,0.9
		c0.2,0.4,0.3,0.9,0.3,1.5c0,0.4-0.1,0.7-0.2,1c-0.1,0.2-0.2,0.4-0.4,0.6c-0.2,0.1-0.4,0.2-0.7,0.3c-0.3,0.1-0.6,0.1-1,0.1
		c-1,0.1-2,0.2-3,0.4c-1,0.1-1.9,0.4-2.6,0.7c-0.8,0.3-1.4,0.8-1.9,1.4c-0.5,0.6-0.7,1.5-0.7,2.5c0,0.8,0.1,1.5,0.4,2
		c0.3,0.6,0.6,1,1.1,1.4c0.5,0.4,1,0.6,1.6,0.8c0.6,0.2,1.3,0.3,2,0.3c0.7,0,1.4-0.1,1.9-0.2c0.5-0.1,1-0.3,1.5-0.6
		c0.4-0.3,0.8-0.6,1.2-1c0.3-0.4,0.6-0.8,0.9-1.2c0,0.3,0,0.6,0.1,0.9c0,0.3,0.2,0.6,0.3,0.9c0.2,0.2,0.4,0.4,0.7,0.6
		c0.3,0.1,0.7,0.2,1.2,0.2c0.3,0,0.5,0,0.6,0c0.2,0,0.4,0,0.6-0.1l0.1,0v-1.8l-0.1,0.1C74.8,20.4,74.6,20.4,74.4,20.4z M71.3,14v2.2
		c0,0.7-0.1,1.4-0.4,2c-0.3,0.6-0.7,1.1-1.1,1.5c-0.5,0.4-1,0.7-1.7,0.9c-1,0.3-2.2,0.5-3.2,0.1c-0.4-0.1-0.8-0.3-1.1-0.6
		c-0.3-0.3-0.5-0.6-0.7-0.9c-0.2-0.3-0.3-0.8-0.3-1.2c0-0.7,0.2-1.3,0.6-1.7c0.4-0.4,1-0.7,1.7-0.9c0.7-0.2,1.4-0.4,2.3-0.5
		c0.8-0.1,1.6-0.2,2.4-0.4c0.3,0,0.6-0.1,0.9-0.2C71,14.3,71.2,14.1,71.3,14z"/>
	<path fill="#4D4D4F" d="M87.7,16.6c-0.1,0.6-0.2,1.2-0.5,1.7c-0.3,0.5-0.6,1-1,1.3c-0.4,0.4-0.8,0.7-1.3,0.9
		c-0.5,0.2-1,0.3-1.6,0.3c-0.9,0-1.6-0.2-2.3-0.5c-0.7-0.4-1.2-0.9-1.6-1.4c-0.4-0.6-0.8-1.3-1-2c-0.2-0.8-0.3-1.5-0.3-2.3
		c0-0.8,0.1-1.6,0.3-2.3c0.2-0.8,0.6-1.5,1-2c0.4-0.6,1-1.1,1.6-1.4c0.6-0.4,1.4-0.5,2.3-0.5c1.2,0,2.2,0.3,2.8,0.9
		c0.7,0.6,1.1,1.5,1.4,2.6l0,0.1h2l0-0.1c-0.2-1.8-0.9-3.1-2-4c-1.1-0.9-2.5-1.3-4.2-1.3c-1.2,0-2.2,0.2-3.1,0.7
		c-0.9,0.4-1.7,1-2.3,1.8c-0.6,0.7-1.1,1.6-1.4,2.6c-0.3,1-0.5,2-0.5,3.1c0,1.1,0.2,2.1,0.5,3.1c0.3,1,0.8,1.8,1.4,2.6
		c0.6,0.7,1.4,1.3,2.3,1.7c0.9,0.4,1.9,0.6,3.1,0.6c1.7,0,3.2-0.5,4.3-1.6c1.1-1,1.8-2.5,2.1-4.4l0-0.1L87.7,16.6L87.7,16.6z"/>
	<path fill="#4D4D4F" d="M108.2,6.4c-1,0-2,0.3-2.9,0.7c-0.8,0.5-1.5,1.2-1.9,2.1c-0.3-0.9-0.8-1.6-1.6-2.1
		c-0.8-0.5-1.8-0.7-2.8-0.7c-1.2,0-2.3,0.3-3.1,0.8c-0.8,0.5-1.4,1.2-1.9,2.1V6.8h-1.9v15.3h2v-8.5c0-0.8,0.1-1.5,0.3-2.2
		c0.2-0.7,0.4-1.2,0.8-1.7c0.4-0.5,0.8-0.9,1.4-1.2c0.6-0.3,1.2-0.4,2-0.4c0.6,0,1.1,0.1,1.5,0.3c0.4,0.2,0.7,0.5,1,0.8
		c0.2,0.3,0.4,0.7,0.5,1.2c0.1,0.5,0.2,0.9,0.2,1.4v10.4h2v-8.7c0-0.7,0.1-1.4,0.2-2c0.1-0.6,0.3-1.2,0.6-1.7
		c0.3-0.5,0.7-0.9,1.2-1.2c0.5-0.3,1.2-0.4,2-0.4c1.3,0,2.2,0.3,2.7,1c0.5,0.6,0.8,1.6,0.8,2.8v10.3h2V11.8
		C113.3,8.2,111.6,6.4,108.2,6.4z"/>
	<rect x="117.2" y="6.8" fill="#4D4D4F" width="2" height="15.3"/>
	<rect x="123.3" y="1" fill="#4D4D4F" width="2" height="21.2"/>
	<rect x="129.3" y="1" fill="#4D4D4F" width="2" height="21.2"/>
	<path fill="#4D4D4F" d="M147.4,20.4c-0.7,0-1-0.3-1-1v-8.1c0-1-0.2-1.9-0.5-2.5c-0.3-0.7-0.8-1.2-1.3-1.5c-0.5-0.4-1.1-0.6-1.8-0.7
		c-1.6-0.3-3.1-0.2-4.4,0.1c-0.7,0.2-1.4,0.5-1.9,0.9c-0.6,0.4-1,1-1.3,1.6c-0.3,0.7-0.5,1.4-0.6,2.3l0,0.1h2l0-0.1
		c0-1.2,0.4-2.1,1.1-2.6c0.7-0.5,1.7-0.8,2.8-0.8c0.5,0,1.1,0,1.5,0.1c0.5,0.1,0.9,0.2,1.2,0.5c0.3,0.2,0.6,0.5,0.8,0.9
		c0.2,0.4,0.3,0.9,0.3,1.5c0,0.4-0.1,0.7-0.2,1c-0.1,0.2-0.2,0.4-0.4,0.6c-0.2,0.1-0.4,0.2-0.7,0.3c-0.3,0.1-0.6,0.1-1,0.1
		c-1,0.1-2,0.2-3,0.4c-1,0.1-1.9,0.4-2.6,0.7c-0.8,0.3-1.4,0.8-1.9,1.4c-0.5,0.6-0.7,1.5-0.7,2.5c0,0.8,0.1,1.5,0.4,2
		c0.3,0.6,0.6,1,1.1,1.4c0.5,0.4,1,0.6,1.6,0.8c0.6,0.2,1.3,0.3,2,0.3c0.7,0,1.4-0.1,1.9-0.2c0.5-0.1,1-0.3,1.5-0.6
		c0.4-0.3,0.8-0.6,1.2-1c0.3-0.3,0.6-0.8,0.9-1.2c0,0.3,0,0.6,0.1,0.9c0,0.3,0.2,0.6,0.3,0.9c0.2,0.2,0.4,0.4,0.7,0.6
		c0.3,0.1,0.7,0.2,1.2,0.2c0.3,0,0.5,0,0.6,0c0.2,0,0.4,0,0.6-0.1l0.1,0v-1.8l-0.1,0.1C147.8,20.4,147.6,20.4,147.4,20.4z M144.4,14
		v2.2c0,0.7-0.1,1.4-0.4,2c-0.3,0.6-0.7,1.1-1.1,1.5c-0.5,0.4-1,0.7-1.7,0.9c-1,0.3-2.2,0.5-3.2,0.1c-0.4-0.1-0.8-0.3-1.1-0.6
		c-0.3-0.3-0.5-0.6-0.7-0.9c-0.2-0.4-0.3-0.8-0.3-1.2c0-0.7,0.2-1.3,0.6-1.7c0.4-0.4,1-0.7,1.7-0.9c0.7-0.2,1.4-0.4,2.3-0.5
		c0.8-0.1,1.6-0.2,2.4-0.4c0.3,0,0.6-0.1,0.9-0.2C144,14.3,144.3,14.1,144.4,14z"/>
	<path fill="#4D4D4F" d="M162.7,9.9c-0.2-0.7-0.5-1.4-0.9-1.9c-0.4-0.5-1-0.9-1.8-1.2c-0.7-0.3-1.6-0.4-2.7-0.4
		c-1.1,0-2.1,0.3-3,0.9c-0.8,0.5-1.5,1.2-1.8,2V6.8h-2v15.3h2v-8.9c0-0.7,0.1-1.4,0.4-2c0.2-0.6,0.5-1.2,0.9-1.6
		c0.4-0.4,0.9-0.8,1.4-1.1c0.6-0.3,1.2-0.4,1.9-0.4c0.7,0,1.3,0.1,1.8,0.3c0.5,0.2,0.9,0.5,1.2,0.9c0.3,0.4,0.5,0.9,0.6,1.4
		c0.1,0.5,0.2,1.1,0.2,1.8v9.5h2v-9.8C163,11.4,162.9,10.6,162.7,9.9z"/>
	<circle fill="#4D4D4F" cx="118.3" cy="2.3" r="1.3"/>
</g>
<g>
	<linearGradient id="SVGID_1_" gradientUnits="userSpaceOnUse" x1="1.1804" y1="18.8987" x2="28.342" y2="17.4752">
		<stop  offset="0" style="stop-color:#BA0D36"/>
		<stop  offset="4.492804e-02" style="stop-color:#C00E38"/>
		<stop  offset="0.1106" style="stop-color:#CF123D"/>
		<stop  offset="0.1887" style="stop-color:#E71745"/>
		<stop  offset="0.2" style="stop-color:#ED1847"/>
		<stop  offset="0.49" style="stop-color:#F4857E"/>
		<stop  offset="0.4957" style="stop-color:#E8736F"/>
		<stop  offset="0.5075" style="stop-color:#DA595B"/>
		<stop  offset="0.5211" style="stop-color:#CE414C"/>
		<stop  offset="0.5369" style="stop-color:#C52E41"/>
		<stop  offset="0.5564" style="stop-color:#BF1D3A"/>
		<stop  offset="0.5838" style="stop-color:#BB1137"/>
		<stop  offset="0.66" style="stop-color:#BA0D36"/>
		<stop  offset="0.7064" style="stop-color:#C52E41"/>
		<stop  offset="0.8012" style="stop-color:#E16664"/>
		<stop  offset="0.85" style="stop-color:#F4857E"/>
		<stop  offset="1" style="stop-color:#BA0D36"/>
	</linearGradient>
	<path fill="url(#SVGID_1_)" d="M28.4,18.4c0-6.8-4.8-7.4-8.5-4.4c-2.3,1.9-5.3,5.4-5.3,2.1c0-7.8-7.8-4.4-13,2.3l0,7.2
		c5.2-6.7,13-10.2,13-2.3c0,3.3,3-0.2,5.3-2.1c3.3-2.7,7.6-2.4,8.4,2.7h0.1V18.4L28.4,18.4z"/>
	<linearGradient id="SVGID_2_" gradientUnits="userSpaceOnUse" x1="1.1932" y1="9.2712" x2="28.3354" y2="7.8487">
		<stop  offset="0" style="stop-color:#BA0D36"/>
		<stop  offset="4.767102e-02" style="stop-color:#BE0E37"/>
		<stop  offset="0.1001" style="stop-color:#C8113A"/>
		<stop  offset="0.1546" style="stop-color:#D81440"/>
		<stop  offset="0.2" style="stop-color:#ED1847"/>
		<stop  offset="0.2928" style="stop-color:#EF4454"/>
		<stop  offset="0.49" style="stop-color:#F4857E"/>
		<stop  offset="0.4957" style="stop-color:#E8736F"/>
		<stop  offset="0.5075" style="stop-color:#DA595B"/>
		<stop  offset="0.5211" style="stop-color:#CE414C"/>
		<stop  offset="0.5369" style="stop-color:#C52E41"/>
		<stop  offset="0.5564" style="stop-color:#BF1D3A"/>
		<stop  offset="0.5838" style="stop-color:#BB1137"/>
		<stop  offset="0.66" style="stop-color:#BA0D36"/>
		<stop  offset="0.7064" style="stop-color:#C52E41"/>
		<stop  offset="0.8012" style="stop-color:#E16664"/>
		<stop  offset="0.85" style="stop-color:#F4857E"/>
		<stop  offset="1" style="stop-color:#BA0D36"/>
	</linearGradient>
	<path fill="url(#SVGID_2_)" d="M28.4,8.9c0-6.8-4.8-7.4-8.5-4.4c-2.3,1.9-5.3,5.4-5.3,2.1c0-7.8-7.8-4.4-13,2.3v6.9
		c5.3-6.3,13-9.8,13-2c0,3.3,3-0.2,5.3-2.1c3.3-2.7,7.6-2.4,8.4,2.7h0.1V8.9L28.4,8.9z"/>
</g>
</svg>
