<?xml version="1.0" encoding="utf-8"?>
<!-- Generator: Adobe Illustrator 18.1.1, SVG Export Plug-In . SVG Version: 6.00 Build 0)  -->
<svg version="1.1" id="Layer_1" xmlns="http://www.w3.org/2000/svg" xmlns:xlink="http://www.w3.org/1999/xlink" x="0px" y="0px"
	 viewBox="0 0 88 52.2" enable-background="new 0 0 88 52.2" xml:space="preserve">
<g>
	<path fill="#FFFFFF" d="M64.3,48.8c0-0.5-0.1-1.3,0.9-1.3h1.7c1,0,0.9,0.8,0.9,1.3c0,0.6,0,1.4-0.7,1.4h-2
		C64.3,50.2,64.3,49.3,64.3,48.8 M62.6,48.8c0,1.1-0.1,2.8,1.4,2.8h4c1.5,0,1.4-1.7,1.4-2.8c0-1,0.1-2.6-1.7-2.6h-3.3
		C62.5,46.2,62.6,47.8,62.6,48.8z M53.8,46.6v4.6c0,0.1,0,0.4,0.3,0.4H55c0.3,0,0.3-0.2,0.3-0.4v-3.3c0.6,1.2,1.6,3,1.9,3.7h1.4
		c0.3-0.7,1.3-2.5,1.9-3.7v3.3c0,0.1,0,0.4,0.3,0.4h0.9c0.3,0,0.3-0.2,0.3-0.4v-4.6c0-0.2,0-0.4-0.3-0.4h-1.6c-0.3,0-0.6-0.1-1,0.7
		c-0.3,0.6-0.9,2-1.3,2.7c-0.4-0.7-1-2-1.3-2.7c-0.4-0.8-0.7-0.7-0.9-0.7h-1.6C53.7,46.2,53.8,46.4,53.8,46.6z M48.5,47.8
		c0-0.1,0-0.2,0.3-0.2c0.4,0,2,0,2,0c0.7,0,0.7,0.1,0.7,0.6c0,0.3,0,0.5-1,0.5c-0.8,0-2.1,0-2.1,0V47.8z M46.9,46.7v4.7
		c0,0.2,0.2,0.2,0.1,0.2h1.3c0.1,0,0.2,0,0.2-0.2v-2.2c0,0,0.4,0.8,0.5,1.1c0,0,1.8,0,1.9,0c0.1,0,0.5,0,0.5,0.6
		c0,0.2-0.1,0.7,0.2,0.7h1.3c0.1,0,0.2,0,0.2-0.3c0-0.6,0.1-1.7-0.7-1.8c0.5-0.3,0.7-0.4,0.7-1.5c0-1.7-0.9-1.7-1.5-1.7h-4.5
		C47.1,46.2,46.9,46.3,46.9,46.7z M41.8,49.3c0.1-0.1,0.8-1.5,0.8-1.6l0.1,0c0.1,0.1,0.7,1.5,0.8,1.6l-0.1,0.1L41.8,49.3L41.8,49.3z
		 M41.7,46.2c0,0-2.4,4.5-2.7,5.2v0.1h1.7c0.2-0.4,0.9-1.8,1-2c0.1,0.2,0.4,1.1,0.4,1.1h2.1l0.5,0.9h1.7v-0.2
		c-0.3-0.7-2-3.8-2.2-4.3c-0.3-0.7-0.7-0.9-1-0.9H41.7z M30.8,47.8c0-0.1,0-0.2,0.3-0.2c0.4,0,2,0,2,0c0.7,0,0.7,0.1,0.7,0.6
		c0,0.3,0,0.5-1,0.5c-0.8,0-2.1,0-2.1,0V47.8z M29.1,46.7v4.7c0,0.2,0.2,0.2,0.1,0.2h1.3c0.1,0,0.2,0,0.2-0.2v-2.2
		c0,0,0.4,0.8,0.5,1.1c0,0,1.8,0,1.9,0c0.1,0,0.5,0,0.5,0.6c0,0.2-0.1,0.7,0.2,0.7h1.3c0.1,0,0.2,0,0.2-0.3c0-0.6,0.1-1.7-0.7-1.8
		c0.5-0.3,0.7-0.4,0.7-1.5c0-1.7-0.9-1.7-1.5-1.7h-4.5C29.3,46.2,29.1,46.3,29.1,46.7z M22.9,47.3c0,0,0,2.4,0,3
		c0,1.2,0.7,1.3,1,1.3c0.1,0,4.3,0,4.3,0c0.3,0,0.3-0.2,0.3-0.7c0-0.4,0-0.7-0.3-0.7c0,0-3.3,0-3.4,0c-0.1,0-0.4,0.1-0.4-0.3
		c0-0.3,0-1.4,0-1.4l0.5,1c0,0,2.7,0,3,0c0.3,0,0.3-0.1,0.2-0.2c0-0.1-0.5-1-0.5-1h-2.9c-0.3,0-0.3-0.1-0.3-0.5s0.3-0.3,0.4-0.3
		c0.1,0,3.2,0,3.2,0c0.4,0,0.3-0.2,0.3-0.7c0-0.4,0-0.7-0.3-0.7c0,0-4,0-4.1,0C23,46.2,22.9,47,22.9,47.3z M19.8,47.6
		c0.5,0,0.9,0,0.9,1.3c0,0.4,0.1,1.2-0.7,1.2c-0.8,0-2.7,0-2.7,0v-2.5H19.8z M20.2,46.2h-4.4v5.4h1.6v-1.1l0.5,1.1c0,0,1.9,0,2.4,0
		c2.3,0,2.1-1.3,2.1-3.4C22.3,46.2,20.4,46.2,20.2,46.2z M7.6,49.4v-2.8c0-0.2,0-0.4-0.3-0.4h-1C6,46.2,6,46.4,6,46.6
		c0,0,0,2.6,0,2.8c0,0.2,0,0.7-0.7,0.7H3.6c-0.7,0-0.7-0.5-0.7-0.7c0-0.2,0-2.8,0-2.8c0-0.2,0-0.4-0.3-0.4h-1
		c-0.3,0-0.3,0.2-0.3,0.4v2.8c0,0.6,0,2.1,1.9,2.1h2.5C7.6,51.5,7.6,50,7.6,49.4z M12,48c-0.5-0.7-1.2-1.8-1.7-1.8H8.5
		c-0.3,0-0.3,0.2-0.3,0.4v4.6c0,0.1,0,0.4,0.3,0.4h0.9c0.3,0,0.3-0.2,0.3-0.4v-3.4c1,1.3,1.9,2.5,2.6,3.5c0.4,0.4,0.5,0.3,0.9,0.3
		c0.4,0,1.6,0,1.8,0v-5c0-0.2,0-0.4-0.3-0.4h-1c-0.3,0-0.3,0.2-0.3,0.4V50C13,49.4,12.4,48.5,12,48z M52,19.7
		c-2.4,1.6-5.6,2.6-9.5,2.6l-0.1,0h0l-0.1,0c-3.9,0-7.2-1-9.5-2.6c2.4-1.6,5.6-2.6,9.5-2.6l0.1,0h0l0.1,0
		C46.4,17.1,49.6,18.1,52,19.7z M61.5,19.7c6.7-3.1,11-7.8,11.2-13c0,0-1.8-1.4-7.4-3.7c-5-1.9-8.8-2.4-8.8-2.4l0,11.6
		c0,1.7-0.7,3.5-1.9,5.1c-3.8-1-7.9-1.5-12.3-1.5h0c-4.4,0-8.5,0.5-12.3,1.5c-1.2-1.6-1.9-3.3-1.9-5.1l0-11.6c0,0-3.8,0.4-8.8,2.4
		c-5.7,2.2-7.4,3.7-7.4,3.7c0.2,5.2,4.6,9.9,11.3,13c-6.7,3.1-11,7.8-11.2,13c0,0,1.8,1.4,7.4,3.7c5,1.9,8.8,2.4,8.8,2.4l0-11.6
		c0-1.7,0.7-3.5,1.9-5.1c3.8,1,7.9,1.5,12.3,1.5h0c4.4,0,8.5-0.5,12.3-1.5c1.2,1.6,1.9,3.3,1.9,5.1l0,11.6c0,0,3.8-0.4,8.8-2.4
		c5.7-2.2,7.4-3.7,7.4-3.7C72.5,27.5,68.1,22.8,61.5,19.7z M76.3,49.4v-2.8c0-0.2,0-0.4-0.3-0.4h-1c-0.3,0-0.3,0.2-0.3,0.4
		c0,0,0,2.6,0,2.8c0,0.2,0,0.7-0.7,0.7h-1.7c-0.7,0-0.7-0.5-0.7-0.7c0-0.2,0-2.8,0-2.8c0-0.2,0-0.4-0.3-0.4h-1
		c-0.3,0-0.3,0.2-0.3,0.4v2.8c0,0.6,0,2.1,1.9,2.1h2.5C76.2,51.5,76.3,50,76.3,49.4z M81.6,48.2c0,0.3,0,0.5-1,0.5
		c-0.8,0-2.1,0-2.1,0v-1c0-0.1,0-0.2,0.3-0.2c0.4,0,2,0,2,0C81.6,47.6,81.6,47.7,81.6,48.2z M83.3,47.9c0-1.7-0.9-1.7-1.5-1.7h-4.5
		c-0.2,0-0.4,0.1-0.4,0.5v4.7c0,0.2,0.2,0.2,0.1,0.2h1.3c0.1,0,0.2,0,0.2-0.2v-2.2c0,0,0.4,0.8,0.5,1.1c0,0,1.8,0,1.9,0
		c0.1,0,0.5,0,0.5,0.6c0,0.2-0.1,0.7,0.2,0.7h1.3c0.1,0,0.2,0,0.2-0.3c0-0.6,0.1-1.7-0.7-1.8C83.1,49.1,83.3,49,83.3,47.9z
		 M84.9,50.3c0,0.1,0,0.1-0.2,0.1c-0.1,0-0.3,0-0.3,0v-0.2c0,0,0.1,0,0.3,0C84.9,50.2,84.9,50.2,84.9,50.3L84.9,50.3z M85.1,50.3
		c0-0.2-0.1-0.3-0.3-0.3h-0.4c-0.1,0-0.1,0-0.1,0.2V51l0.1,0.1c0,0,0.1,0,0.1-0.1v-0.4h0.1c0.1,0.1,0.2,0.3,0.3,0.5
		c0,0,0.2,0,0.2-0.1c-0.1-0.1-0.1-0.2-0.2-0.3C85,50.7,85.1,50.5,85.1,50.3z M85.4,50.5c0,0.4-0.3,0.8-0.7,0.8
		c-0.4,0-0.7-0.3-0.7-0.8c0-0.4,0.3-0.7,0.7-0.7C85.1,49.8,85.4,50.1,85.4,50.5z M85.6,50.5c0-0.5-0.4-1-0.9-1c-0.5,0-0.9,0.4-0.9,1
		c0,0.5,0.4,1,0.9,1C85.2,51.6,85.6,51.1,85.6,50.5z"/>
</g>
</svg>
