<?xml version="1.0" encoding="utf-8"?>
<!-- Generator: Adobe Illustrator 18.1.1, SVG Export Plug-In . SVG Version: 6.00 Build 0)  -->
<svg version="1.1" id="Layer_1" xmlns="http://www.w3.org/2000/svg" xmlns:xlink="http://www.w3.org/1999/xlink" x="0px" y="0px"
	 viewBox="0 0 164.3 49" enable-background="new 0 0 164.3 49" xml:space="preserve">
<g>
	<path fill-rule="evenodd" clip-rule="evenodd" fill="#FFD800" d="M0.6,0.5h33.5v48H0.6V0.5L0.6,0.5z M5.4,43.7h23.8V5.3H5.4V43.7
		L5.4,43.7z"/>
	<path fill-rule="evenodd" clip-rule="evenodd" d="M56.3,22h-2.1c-2.7-3.8-5.4-7.7-8.1-12h0v12h-2.3V5.3h2.1
		c2.7,3.8,5.4,7.6,8.1,11.9h0V5.3h2.3V22L56.3,22z"/>
	<path fill-rule="evenodd" clip-rule="evenodd" d="M61.8,15.4c0.7-2.2,1.3-4.2,1.9-6.8h0c0.7,2.6,1.3,4.6,1.9,6.8H61.8L61.8,15.4z
		 M62.9,5.3L57.1,22h2.5l1.5-4.6h5l1.3,4.6h3.2L65.3,5.3H62.9L62.9,5.3z"/>
	<polygon fill-rule="evenodd" clip-rule="evenodd" points="73.3,22 73.3,7.6 68.9,7.6 68.9,5.3 80.5,5.3 80.5,7.6 76.2,7.6 76.2,22 
		73.3,22 	"/>
	<polygon fill-rule="evenodd" clip-rule="evenodd" points="81.5,5.3 84.3,5.3 84.3,22 81.5,22 81.5,5.3 	"/>
	<path fill-rule="evenodd" clip-rule="evenodd" d="M93.2,19.9c-3,0-4-3.3-4-6.5c0-3.1,1.2-6,4-6c2.8,0,4,2.9,4,6
		C97.2,16.6,96.1,19.9,93.2,19.9L93.2,19.9z M93.2,22.3c4.4,0,7.1-3.9,7.1-8.9c0-4.7-3-8.4-7.1-8.4c-4.1,0-7.1,3.7-7.1,8.4
		C86.1,18.4,88.8,22.3,93.2,22.3L93.2,22.3z"/>
	<path fill-rule="evenodd" clip-rule="evenodd" d="M114.5,22h-2.1c-2.7-3.8-5.4-7.7-8.1-12h0v12H102V5.3h2.1
		c2.7,3.8,5.4,7.6,8.1,11.9h0.1V5.3h2.3V22L114.5,22z"/>
	<path fill-rule="evenodd" clip-rule="evenodd" d="M119.9,15.4c0.7-2.2,1.3-4.2,1.9-6.8h0c0.7,2.6,1.3,4.6,1.9,6.8H119.9L119.9,15.4
		z M121,5.3L115.3,22h2.5l1.5-4.6h5l1.3,4.6h3.2l-5.3-16.7H121L121,5.3z"/>
	<polygon fill-rule="evenodd" clip-rule="evenodd" points="129.6,5.3 132.4,5.3 132.4,19.8 138.1,19.8 138.1,22 129.6,22 129.6,5.3 
			"/>
	<path fill-rule="evenodd" clip-rule="evenodd" d="M54.6,36v6.9c-1.5,0.6-3.1,1-4.7,1c-4.9,0-8-3.8-8-8.7c0-4.6,3.1-8.5,8.1-8.5
		c1.5,0,3.1,0.6,4.1,1.3l-0.9,2c-0.8-0.5-2-0.9-3.1-0.9c-3.1,0-5.1,2.4-5.1,6.2c0,4,2.4,6.3,4.8,6.3c0.8,0,1.4-0.1,2-0.4V36H54.6
		L54.6,36z"/>
	<polygon fill-rule="evenodd" clip-rule="evenodd" points="64.8,29.2 60.1,29.2 60.1,33.8 64.7,33.8 64.7,36 60.1,36 60.1,41.4 
		65.7,41.4 65.7,43.6 57.2,43.6 57.2,26.9 64.8,26.9 64.8,29.2 	"/>
	<path fill-rule="evenodd" clip-rule="evenodd" d="M73.7,41.5c-3,0-4-3.3-4-6.5c0-3.1,1.2-6,4-6c2.8,0,4,2.9,4,6
		C77.7,38.2,76.6,41.5,73.7,41.5L73.7,41.5z M73.7,43.9c4.4,0,7.1-3.9,7.1-8.9c0-4.7-3-8.4-7.1-8.4c-4.1,0-7.1,3.7-7.1,8.4
		C66.6,40,69.3,43.9,73.7,43.9L73.7,43.9z"/>
	<path fill-rule="evenodd" clip-rule="evenodd" d="M94.5,36v6.9c-1.5,0.6-3.1,1-4.7,1c-4.9,0-8-3.8-8-8.7c0-4.6,3.1-8.5,8.1-8.5
		c1.6,0,3.1,0.6,4.1,1.3l-0.9,2c-0.8-0.5-1.9-0.9-3-0.9c-3.1,0-5.1,2.4-5.1,6.2c0,4,2.4,6.3,4.8,6.3c0.8,0,1.4-0.1,2-0.4V36H94.5
		L94.5,36z"/>
	<path fill-rule="evenodd" clip-rule="evenodd" d="M100,29.2h1.3c1.7,0,2.6,1,2.6,2.7c0,2.2-1.4,3.2-2.7,3.3c-0.3,0-1,0.1-1.2,0.1
		V29.2L100,29.2z M107.2,43.6l-3.4-6.9c1.8-1,2.9-3,2.9-5c0-3.2-2-4.8-5.2-4.8h-4.5v16.7h2.9v-6.3h1.3l2.7,6.3H107.2L107.2,43.6z"/>
	<path fill-rule="evenodd" clip-rule="evenodd" d="M112,37c0.7-2.2,1.3-4.2,1.9-6.8h0c0.7,2.6,1.3,4.6,1.9,6.8H112L112,37z
		 M113.1,26.9l-5.8,16.7h2.5l1.5-4.6h5l1.3,4.6h3.2l-5.3-16.7H113.1L113.1,26.9z"/>
	<path fill-rule="evenodd" clip-rule="evenodd" d="M126.1,26.9h-4.5v16.7h2.9v-6.3h1.3c3.4,0,5.5-2.8,5.5-5.6
		C131.3,28.5,129.3,26.9,126.1,26.9L126.1,26.9z M125.7,35.2c-0.3,0-1,0-1.2,0.1v-6.1h1.3c1.7,0,2.6,1,2.6,2.7
		C128.5,34.1,127.1,35.1,125.7,35.2L125.7,35.2z"/>
	<polygon fill-rule="evenodd" clip-rule="evenodd" points="144.6,43.6 141.7,43.6 141.7,35.6 135.8,35.6 135.8,43.6 132.9,43.6 
		132.9,26.9 135.8,26.9 135.8,33.3 141.7,33.3 141.7,27 144.6,27 144.6,43.6 	"/>
	<polygon fill-rule="evenodd" clip-rule="evenodd" points="147.3,26.9 150.2,26.9 150.2,43.6 147.3,43.6 147.3,26.9 	"/>
	<path fill-rule="evenodd" clip-rule="evenodd" d="M163.1,30c-0.7-0.4-1.8-0.9-2.9-0.9c-2.9,0-5,2.4-5,6.2c0,4,2.3,6.3,5.1,6.3
		c1.1,0,2.1-0.4,2.9-0.8l0.8,2.1c-0.9,0.6-2.4,1.1-3.8,1.1c-4.9,0-8-3.8-8-8.7c0-4.6,3.1-8.5,8.1-8.5c1.5,0,2.9,0.6,3.8,1.3
		L163.1,30L163.1,30z"/>
</g>
</svg>
