<?xml version="1.0" encoding="utf-8"?>
<!-- Generator: Adobe Illustrator 18.1.1, SVG Export Plug-In . SVG Version: 6.00 Build 0)  -->
<svg version="1.1" id="Layer_1" xmlns="http://www.w3.org/2000/svg" xmlns:xlink="http://www.w3.org/1999/xlink" x="0px" y="0px"
	 viewBox="0 0 204.5 46" enable-background="new 0 0 204.5 46" xml:space="preserve">
<g>
	<g>
		<path fill="#D57528" d="M37,0.8H3.2C2,0.8,1,1.7,1,3v19.1h38.2V3C39.2,1.7,38.2,0.8,37,0.8z"/>
		<path fill="#EC8123" d="M1,42.5c0,1.2,1,2.2,2.2,2.2H37c1.2,0,2.2-1,2.2-2.2V23.1H1V42.5z"/>
	</g>
	<g>
		<path fill="#D57528" d="M76.1,0.8H42.3c-1.2,0-2.2,1-2.2,2.2v19.1h38.2V3C78.3,1.7,77.3,0.8,76.1,0.8z"/>
		<path fill="#EC8123" d="M40.1,42.5c0,1.2,1,2.2,2.2,2.2h33.8c1.2,0,2.2-1,2.2-2.2V23.1H40.1V42.5z"/>
	</g>
	<g>
		<path fill="#D57528" d="M115.1,0.8H81.4c-1.2,0-2.2,1-2.2,2.2v19.1h38.2V3C117.3,1.7,116.4,0.8,115.1,0.8z"/>
		<path fill="#EC8123" d="M79.2,42.5c0,1.2,1,2.2,2.2,2.2h33.8c1.2,0,2.2-1,2.2-2.2V23.1H79.2V42.5z"/>
	</g>
	<g>
		<path fill="#D57528" d="M154.2,0.8h-33.8c-1.2,0-2.2,1-2.2,2.2v19.1h38.2V3C156.4,1.7,155.4,0.8,154.2,0.8z"/>
		<path fill="#EC8123" d="M118.3,42.5c0,1.2,1,2.2,2.2,2.2h33.8c1.2,0,2.2-1,2.2-2.2V23.1h-38.2V42.5z"/>
	</g>
	<g>
		<path fill="#D57528" d="M193.3,0.8h-33.8c-1.2,0-2.2,1-2.2,2.2v19.1h38.2V3C195.5,1.7,194.5,0.8,193.3,0.8z"/>
		<path fill="#EC8123" d="M157.3,42.5c0,1.2,1,2.2,2.2,2.2h33.8c1.2,0,2.2-1,2.2-2.2V23.1h-38.2V42.5z"/>
	</g>
	<path fill="#DCDDDE" d="M21.6,21.8c-0.2-0.5,0.1-0.8,0.1-0.8l2.8-5.3c0,0,2.5-4.6,2.9-5.5s-0.2-1.4-0.8-1.4h-2.8
		c-0.5,0-0.8,0.3-1.1,0.9c-0.3,0.5-4.1,7.3-5.9,10.5v-9.9c0-0.8-0.7-1.5-1.5-1.5h-2.1c-0.8,0-1.5,0.7-1.5,1.5v11.8h10
		C21.6,21.9,21.6,21.8,21.6,21.8z"/>
	<path fill="#FFFFFF" d="M28.2,34.9c-0.3-0.5-4.4-8.5-6-11.8H11.7v12.2c0,0.8,0.7,1.5,1.5,1.5h2.1c0.8,0,1.5-0.7,1.5-1.5V23.4
		c1.9,3.6,6.1,11.8,6.4,12.4c0.4,0.8,1,0.9,1.4,0.9h3C28.7,36.8,28.6,35.5,28.2,34.9z"/>
	<path fill="#FFFFFF" d="M68.9,35.8l-2.8-12.6h-4.7l0.8,3.7h-5.7l0.8-3.7h-4.7l-2.9,12.6c-0.1,0.6,0.3,1.1,0.9,1.1h2.5
		c0.6,0,1.2-0.5,1.3-1.1l1.1-4.8h7.5l1.1,4.8c0.1,0.6,0.7,1.1,1.3,1.1h2.5C68.7,36.9,69.1,36.4,68.9,35.8z"/>
	<path fill="#DCDDDE" d="M59.4,14.2l1.8,7.9h4.7L63.1,9.7c-0.1-0.6-0.6-0.9-1.2-0.9h-5c-0.6,0-1.1,0.3-1.2,0.8l-2.8,12.4h4.7
		L59.4,14.2z"/>
	<path fill="#DCDDDE" d="M107.3,8.8H105c-0.6,0-1.2,0.3-1.5,0.8c0,0-4.5,9-4.7,9.3c-0.2,0.3-0.3,0-0.3,0l-4.8-9.4
		c-0.3-0.5-0.8-0.7-1.4-0.7h-2.5c-0.6,0-0.9,0.4-0.6,1c0,0,4.5,9.1,6.1,12.3h6.5l6.3-12.3C108.4,9.3,107.9,8.8,107.3,8.8z"/>
	<path fill="#FFFFFF" d="M95.8,23.2c0.2,0.4,0.1,0.7,0.1,0.7l0,11.6c0,0.8,0.7,1.5,1.5,1.5h2.1c0.8,0,1.5-0.7,1.5-1.5
		c0,0,0-11,0-11.5c0-0.4,0.1-0.7,0.2-0.8L95.8,23.2C95.8,23.1,95.8,23.2,95.8,23.2z"/>
	<path fill="#DCDDDE" d="M137.6,14.2l1.8,7.9h4.7l-2.8-12.4c-0.1-0.6-0.6-0.9-1.2-0.9h-5c-0.6,0-1.1,0.3-1.2,0.8l-2.8,12.4h4.7
		L137.6,14.2z"/>
	<path fill="#FFFFFF" d="M147.2,35.8l-2.8-12.6h-4.7l0.8,3.7h-5.7l0.8-3.7h-4.7l-2.9,12.6c-0.1,0.6,0.3,1.1,0.9,1.1h2.5
		c0.6,0,1.2-0.5,1.3-1.1l1.1-4.8h7.5l1.1,4.8c0.1,0.6,0.7,1.1,1.3,1.1h2.5C146.9,36.9,147.3,36.4,147.2,35.8z"/>
	<path fill="#DCDDDE" d="M178.4,21.8c-0.2-0.5,0.1-0.8,0.1-0.8l2.8-5.3c0,0,2.5-4.6,2.9-5.5c0.5-0.9-0.2-1.4-0.8-1.4h-2.8
		c-0.5,0-0.8,0.3-1.1,0.9c-0.3,0.5-4.1,7.3-5.9,10.5v-9.9c0-0.8-0.7-1.5-1.5-1.5H170c-0.8,0-1.5,0.7-1.5,1.5v11.8h10
		C178.5,21.9,178.5,21.8,178.4,21.8z"/>
	<path fill="#FFFFFF" d="M185.1,34.9c-0.3-0.5-4.4-8.5-6-11.8h-10.5v12.2c0,0.8,0.7,1.5,1.5,1.5h2.1c0.8,0,1.5-0.7,1.5-1.5V23.4
		c1.9,3.6,6.1,11.8,6.4,12.4c0.4,0.8,1,0.9,1.4,0.9h3C185.6,36.8,185.4,35.5,185.1,34.9z"/>
	<g>
		<path fill="#A8A9AC" d="M200.8,0.4c0.4,0,0.8,0.1,1.2,0.2c0.4,0.1,0.7,0.4,1,0.7c0.3,0.3,0.5,0.6,0.6,0.9c0.1,0.4,0.2,0.7,0.2,1.1
			c0,0.4-0.1,0.8-0.2,1.1c-0.1,0.4-0.4,0.7-0.6,0.9c-0.3,0.3-0.6,0.5-1,0.6c-0.4,0.1-0.7,0.2-1.1,0.2c-0.4,0-0.8-0.1-1.1-0.2
			c-0.4-0.2-0.7-0.4-1-0.7c-0.3-0.3-0.5-0.6-0.6-1c-0.1-0.4-0.2-0.7-0.2-1.1c0-0.4,0.1-0.8,0.2-1.1c0.2-0.4,0.4-0.7,0.7-1
			c0.3-0.3,0.6-0.5,0.9-0.6C200,0.5,200.4,0.4,200.8,0.4z M200.8,0.9c-0.3,0-0.7,0.1-1,0.2c-0.3,0.1-0.6,0.3-0.8,0.5
			c-0.2,0.2-0.4,0.5-0.6,0.8c-0.1,0.3-0.2,0.6-0.2,1c0,0.3,0.1,0.6,0.2,1c0.1,0.3,0.3,0.6,0.5,0.8c0.2,0.2,0.5,0.4,0.8,0.6
			c0.3,0.1,0.6,0.2,0.9,0.2c0.3,0,0.7-0.1,1-0.2c0.3-0.1,0.6-0.3,0.8-0.6c0.2-0.2,0.4-0.5,0.5-0.8c0.1-0.3,0.2-0.6,0.2-0.9
			c0-0.4-0.1-0.7-0.2-1c-0.1-0.3-0.3-0.6-0.5-0.8c-0.2-0.2-0.5-0.4-0.8-0.6C201.4,0.9,201.1,0.9,200.8,0.9z M199.6,1.7h1.3
			c0.5,0,0.8,0.1,1,0.2c0.2,0.2,0.4,0.4,0.4,0.7c0,0.2-0.1,0.4-0.2,0.6c-0.1,0.2-0.3,0.3-0.5,0.3l0.7,1.5h-0.8l-0.7-1.4h-0.5V5h-0.7
			V1.7z M200.3,2.1v1h0.5c0.3,0,0.5,0,0.6-0.1c0.1-0.1,0.2-0.2,0.2-0.4c0-0.2-0.1-0.3-0.2-0.4c-0.1-0.1-0.3-0.1-0.6-0.1H200.3z"/>
	</g>
</g>
</svg>
