<svg xmlns="http://www.w3.org/2000/svg" viewBox="0 0 158.37 158.38"><defs><style>.cls-1{fill:#54c9f0;}.cls-2{fill:#212120;}</style></defs><title>Asset 6icon-hospital-</title><g id="Layer_2" data-name="Layer 2"><g id="Layer_1-2" data-name="Layer 1"><rect class="cls-1" x="59.7" y="48.34" width="47.65" height="70.4" rx="6.14" ry="6.14" transform="translate(83.53 -34.6) rotate(45)"/><path class="cls-2" d="M51,158.38a11.83,11.83,0,0,1-8.42-3.49L3.48,115.85A11.92,11.92,0,0,1,3.48,99L99,3.49a11.91,11.91,0,0,1,16.84,0l39.05,39.05a11.92,11.92,0,0,1,0,16.84L59.37,154.9A11.83,11.83,0,0,1,51,158.38Zm56.47-153a6.47,6.47,0,0,0-4.6,1.91L7.3,102.82a6.51,6.51,0,0,0,0,9.21l39.05,39.05a6.51,6.51,0,0,0,9.21,0l95.52-95.52a6.51,6.51,0,0,0,0-9.21L112,7.3A6.47,6.47,0,0,0,107.42,5.4Z"/><path class="cls-2" d="M71.15,121.08a8.78,8.78,0,0,1-6.25-2.59l-25-25a8.84,8.84,0,0,1,0-12.5L81,39.89a8.84,8.84,0,0,1,12.5,0l25,25a8.84,8.84,0,0,1,0,12.5L77.4,118.5A8.78,8.78,0,0,1,71.15,121.08ZM87.23,42.7a3.42,3.42,0,0,0-2.43,1L43.7,84.8a3.44,3.44,0,0,0,0,4.87l25,25a3.52,3.52,0,0,0,4.87,0l41.09-41.1a3.44,3.44,0,0,0,0-4.87l-25-25A3.42,3.42,0,0,0,87.23,42.7Z"/><path d="M82.51,59.71c4.18,0,4.18-6.48,0-6.48s-4.18,6.48,0,6.48Z"/><path d="M69.49,72.73c4.18,0,4.18-6.48,0-6.48s-4.18,6.48,0,6.48Z"/><path d="M56.46,85.75c4.18,0,4.18-6.48,0-6.48s-4.18,6.48,0,6.48Z"/><path d="M92.21,69.41c4.18,0,4.18-6.48,0-6.48s-4.18,6.48,0,6.48Z"/><path d="M79.19,82.43c4.18,0,4.18-6.48,0-6.48s-4.18,6.48,0,6.48Z"/><path d="M66.16,95.46c4.18,0,4.18-6.48,0-6.48s-4.18,6.48,0,6.48Z"/><path d="M101.91,79.11c4.18,0,4.18-6.48,0-6.48s-4.18,6.48,0,6.48Z"/><path d="M88.89,92.13c4.18,0,4.18-6.48,0-6.48s-4.18,6.48,0,6.48Z"/><path d="M75.86,105.16c4.18,0,4.18-6.48,0-6.48s-4.18,6.48,0,6.48Z"/></g></g></svg>