<svg xmlns="http://www.w3.org/2000/svg" viewBox="0 0 135.06 159.39"><defs><style>.cls-1{fill:#54c9f0;}.cls-2{fill:#212120;}</style></defs><title>Asset 3icon-hospital-</title><g id="Layer_2" data-name="Layer 2"><g id="Layer_1-2" data-name="Layer 1"><path class="cls-1" d="M84.9,41.29a19.67,19.67,0,0,1,0,19,34.6,34.6,0,1,1-34.14,50.32H30.4a53.67,53.67,0,0,0,22.26,29.19h57.73A53.52,53.52,0,0,0,84.9,41.29Z"/><path class="cls-2" d="M107.73,159.39H43.27V137.07h64.46ZM48.67,154h53.66V142.47H48.67Z"/><path class="cls-2" d="M105.15,142.47H45.85l-.67-.43a56.38,56.38,0,0,1-23.39-30.67l-1.09-3.5H46.4l.75,1.46A31.91,31.91,0,1,0,78.63,62.95l-4.08-.4,2-3.59a17,17,0,0,0,0-16.37l-2.38-4.3,4.91.31A56.22,56.22,0,0,1,105.82,142Zm-57.72-5.4h56.12A50.82,50.82,0,0,0,83.11,44.44a22.35,22.35,0,0,1-.31,13.66,37.31,37.31,0,1,1-39.64,55.17h-15A51,51,0,0,0,47.44,137.07Z"/><circle class="cls-1" cx="67.67" cy="50.78" r="9.04" transform="translate(-10.73 82.6) rotate(-58.98)"/><path class="cls-2" d="M61.62,73.17a22.39,22.39,0,1,1,19.2-10.85A22.36,22.36,0,0,1,61.62,73.17Zm0-39.37a17,17,0,1,0,8.74,2.43A16.87,16.87,0,0,0,61.66,33.8Z"/><path class="cls-2" d="M61.63,62.52A11.74,11.74,0,1,1,71.7,56.83,11.73,11.73,0,0,1,61.63,62.52Zm0-18.07a6.34,6.34,0,1,0,3.26.91A6.3,6.3,0,0,0,61.65,44.45Z"/><polygon class="cls-2" points="82.41 42.11 77.78 39.33 86.25 25.25 72.66 17.08 64.19 31.16 59.57 28.38 70.82 9.67 93.65 23.41 82.41 42.11"/><polygon class="cls-2" points="55.5 86.85 32.66 73.12 41.22 58.9 45.84 61.68 40.07 71.27 53.66 79.44 59.43 69.85 64.05 72.63 55.5 86.85"/><path class="cls-2" d="M48.57,89.66l-15.14-9.1,6.26-10.41,15.14,9.1ZM40.84,78.71l5.89,3.54.7-1.16-5.89-3.54Z"/><path class="cls-2" d="M96.36,31.33,62.55,11,69.16,0,103,20.33ZM70,9.15,94.52,23.93l1.05-1.75L71,7.41Z"/><rect class="cls-2" y="107.88" width="56.71" height="5.4"/></g></g></svg>