<svg xmlns="http://www.w3.org/2000/svg" viewBox="0 0 158.71 158.71"><defs><style>.cls-1{fill:#54c9f0;}.cls-2{fill:#212120;}</style></defs><title>Asset 12icon-hospital-</title><g id="Layer_2" data-name="Layer 2"><g id="Layer_1-2" data-name="Layer 1"><rect class="cls-1" x="44.32" y="42.34" width="61.18" height="104.56" transform="translate(88.85 -25.25) rotate(45)"/><path class="cls-2" d="M31,146.11,12.6,127.66,25.22,115l18.44,18.44ZM20.24,127.66,31,138.48l5-5L25.22,122.68Z"/><rect class="cls-2" x="-2.61" y="143.19" width="30.87" height="5.4" transform="translate(-99.41 51.8) rotate(-45)"/><path class="cls-2" d="M113.78,63.37,95.34,44.93,122,18.3l18.44,18.44ZM103,44.93l10.81,10.81,19-19L122,25.93Z"/><path class="cls-2" d="M147.09,51,107.67,11.62,119.29,0l39.42,39.42ZM115.3,11.62l31.79,31.79,4-4L119.29,7.63Z"/><path class="cls-2" d="M54.16,151.62,7.09,104.55,84.84,26.8l47.07,47.07ZM14.72,104.55,54.16,144l70.12-70.12L84.84,34.43Z"/><rect class="cls-2" x="80.09" y="37.03" width="5.4" height="21.08" transform="translate(-9.38 72.47) rotate(-45)"/><rect class="cls-2" x="62.55" y="52.38" width="5.4" height="10.54" transform="translate(-21.66 63.02) rotate(-45)"/><rect class="cls-2" x="34.93" y="80.01" width="5.4" height="10.54" transform="translate(-49.28 51.58) rotate(-45)"/><rect class="cls-2" x="25.16" y="91.96" width="5.4" height="21.08" transform="translate(-64.32 49.72) rotate(-45)"/><rect class="cls-2" x="52.47" y="64.65" width="5.4" height="21.08" transform="translate(-37.01 61.03) rotate(-45)"/></g></g></svg>