<svg xmlns="http://www.w3.org/2000/svg" viewBox="0 0 127.43 127.43"><defs><style>.cls-1{fill:#fff;}</style></defs><title>Asset 3</title><g id="Layer_2" data-name="Layer 2"><g id="Layer_1-2" data-name="Layer 1"><path class="cls-1" d="M63.71,0a63.71,63.71,0,1,0,63.71,63.71A63.71,63.71,0,0,0,63.71,0ZM85.1,68.73,56.85,85.22a6.92,6.92,0,0,1-3.46,1,5,5,0,0,1-2.5-.65,5.87,5.87,0,0,1-2.69-5.33V47.18a5.44,5.44,0,0,1,8.66-5L85.1,58.7a5.49,5.49,0,0,1,0,10Z"/><path class="cls-1" d="M82.58,63,54.33,46.53a2.06,2.06,0,0,0-.93-.34h-.06a2.74,2.74,0,0,0-.15,1V80.25a1.75,1.75,0,0,0,.21,1,2.75,2.75,0,0,0,.93-.36L82.58,64.41c.59-.35.77-.65.78-.71A2,2,0,0,0,82.58,63Z"/></g></g></svg>