<svg xmlns="http://www.w3.org/2000/svg" viewBox="0 0 116.94 158.38"><defs><style>.cls-1{fill:#54c9f0;}.cls-2{fill:#212120;}</style></defs><title>Asset 10icon-hospital-</title><g id="Layer_2" data-name="Layer 2"><g id="Layer_1-2" data-name="Layer 1"><rect class="cls-1" x="21.41" y="73.42" width="86.35" height="65.48" rx="3.06" ry="3.06"/><path class="cls-2" d="M99.3,30.78H17.63A5.76,5.76,0,0,1,11.87,25V5.76A5.77,5.77,0,0,1,17.63,0H99.3a5.77,5.77,0,0,1,5.76,5.76V25A5.76,5.76,0,0,1,99.3,30.78ZM17.63,5.4a.36.36,0,0,0-.36.36V25a.36.36,0,0,0,.36.36H99.3a.36.36,0,0,0,.36-.36V5.76a.36.36,0,0,0-.36-.36Z"/><path class="cls-2" d="M98.94,158.38H18a18,18,0,0,1-18-18V68.8A18,18,0,0,1,6.08,55.31L20.15,42.89V25.38H96.79V42.89l14.06,12.42a18,18,0,0,1,6.08,13.49v71.58A18,18,0,0,1,98.94,158.38ZM25.55,30.78V45.33l-15.89,14A12.61,12.61,0,0,0,5.4,68.8v71.58A12.62,12.62,0,0,0,18,153H98.94a12.62,12.62,0,0,0,12.6-12.6V68.8a12.61,12.61,0,0,0-4.26-9.44l-15.89-14V30.78Z"/><path class="cls-2" d="M98.58,141.6H18.35a5.76,5.76,0,0,1-5.76-5.76V76.48a5.77,5.77,0,0,1,5.76-5.76H98.58a5.77,5.77,0,0,1,5.76,5.76v59.36A5.77,5.77,0,0,1,98.58,141.6ZM18.35,76.12a.36.36,0,0,0-.36.36v59.36a.36.36,0,0,0,.36.36H98.58a.36.36,0,0,0,.36-.36V76.48a.36.36,0,0,0-.36-.36Z"/><path class="cls-2" d="M58.47,125a18.89,18.89,0,1,1,13.36-5.53A18.76,18.76,0,0,1,58.47,125Zm0-32.38a13.49,13.49,0,1,0,9.54,4A13.4,13.4,0,0,0,58.47,92.67Z"/><rect class="cls-2" x="42.28" y="103.46" width="32.38" height="5.4" transform="translate(-57.94 72.44) rotate(-45)"/></g></g></svg>