<svg xmlns="http://www.w3.org/2000/svg" viewBox="0 0 158.38 158.25"><defs><style>.cls-1{fill:#54c9f0;}.cls-2{fill:#212120;}</style></defs><title>Asset 9icon-hospital-</title><g id="Layer_2" data-name="Layer 2"><g id="Layer_1-2" data-name="Layer 1"><rect class="cls-1" x="87.37" y="35.23" width="36.86" height="55.42" rx="3.66" ry="3.66" transform="translate(75.49 -56.38) rotate(45)"/><path class="cls-2" d="M13,158.25h0a13,13,0,0,1-9.18-22.14l12.83-12.83a34,34,0,0,0,8.54-14.35l8.24-27.83A57.79,57.79,0,0,1,47.92,56.71L100.62,4A13.68,13.68,0,0,1,120,4l34.4,34.4a13.68,13.68,0,0,1,0,19.35l-52.69,52.69A57.8,57.8,0,0,1,77.27,125l-27.93,8.26a34,34,0,0,0-14.24,8.41l-13,12.87A12.88,12.88,0,0,1,13,158.25ZM110.29,5.4a8.23,8.23,0,0,0-5.86,2.43l-52.7,52.7a52.39,52.39,0,0,0-13.15,22.1l-8.24,27.83a39.45,39.45,0,0,1-9.9,16.64L7.61,139.93a7.57,7.57,0,0,0,10.68,10.74l13-12.87a39.46,39.46,0,0,1,16.5-9.75l27.93-8.26a52.39,52.39,0,0,0,22.13-13.16L150.56,54a8.29,8.29,0,0,0,0-11.72l-34.4-34.4A8.24,8.24,0,0,0,110.29,5.4Z"/><path class="cls-2" d="M94.06,91.57a6.32,6.32,0,0,1-4.5-1.86L68.68,68.82a6.37,6.37,0,0,1,0-9l34-34a6.36,6.36,0,0,1,9,0L132.57,46.7a6.36,6.36,0,0,1,0,9l-34,34A6.32,6.32,0,0,1,94.06,91.57Zm13.13-62.22a1,1,0,0,0-.68.28l-34,34a1,1,0,0,0,0,1.36L93.38,85.89a1,1,0,0,0,1.36,0l34-34a1,1,0,0,0,0-1.36L107.87,29.63A1,1,0,0,0,107.19,29.35Z"/><rect class="cls-2" x="22.03" y="123.27" width="5.4" height="20.64" transform="translate(-87.22 56.61) rotate(-45)"/></g></g></svg>