<svg xmlns="http://www.w3.org/2000/svg" viewBox="0 0 158.38 140.16"><defs><style>.cls-1{fill:#54c9f0;}.cls-2{fill:#212120;}</style></defs><title>Asset 8icon-hospital-</title><g id="Layer_2" data-name="Layer 2"><g id="Layer_1-2" data-name="Layer 1"><rect class="cls-1" x="22.32" y="17.81" width="125.98" height="82.81" rx="2.87" ry="2.87"/><path class="cls-2" d="M146.51,129.75H11.88A11.89,11.89,0,0,1,0,117.87v-106A11.89,11.89,0,0,1,11.88,0H146.51a11.89,11.89,0,0,1,11.88,11.88v106A11.89,11.89,0,0,1,146.51,129.75ZM11.88,5.4A6.49,6.49,0,0,0,5.4,11.88v106a6.49,6.49,0,0,0,6.48,6.48H146.51a6.49,6.49,0,0,0,6.48-6.48v-106a6.49,6.49,0,0,0-6.48-6.48Z"/><path class="cls-2" d="M139.31,103.32H19.07a5.57,5.57,0,0,1-5.57-5.57V20.68a5.57,5.57,0,0,1,5.57-5.57H139.31a5.57,5.57,0,0,1,5.57,5.57V97.75A5.57,5.57,0,0,1,139.31,103.32ZM19.07,20.51a.17.17,0,0,0-.17.17V97.75a.17.17,0,0,0,.17.17H139.31a.17.17,0,0,0,.17-.17V20.68a.17.17,0,0,0-.17-.17Z"/><path class="cls-2" d="M95.21,85.72h-.33A4.17,4.17,0,0,1,91,82.23L84,42.82l-6.17,27a4.23,4.23,0,0,1-8.14.37l-6.88-21L56,59.75a4.21,4.21,0,0,1-3.55,1.94H16.2v-5.4H51.82l7.82-12.14a4.23,4.23,0,0,1,7.57,1l6.34,19.36L80.06,36a4.14,4.14,0,0,1,4.23-3.29,4.19,4.19,0,0,1,4.06,3.49l7.19,40.55,6.65-20a4.22,4.22,0,0,1,4-2.89h36v5.4H107L99.2,82.83A4.17,4.17,0,0,1,95.21,85.72Z"/><path class="cls-2" d="M39.07,140.16H19.26a5.76,5.76,0,0,1-5.76-5.76V124.35H44.83V134.4A5.76,5.76,0,0,1,39.07,140.16ZM18.9,129.75v4.66a.36.36,0,0,0,.36.36H39.07a.36.36,0,0,0,.36-.36v-4.66Z"/><path class="cls-2" d="M139.12,140.16H119.31a5.76,5.76,0,0,1-5.76-5.76V124.35h31.33V134.4A5.76,5.76,0,0,1,139.12,140.16Zm-20.17-10.42v4.66a.36.36,0,0,0,.36.36h19.81a.36.36,0,0,0,.36-.36v-4.66Z"/></g></g></svg>