<svg xmlns="http://www.w3.org/2000/svg" viewBox="0 0 144.28 158.38"><defs><style>.cls-1{fill:#54c9f0;}.cls-2{fill:#212120;}</style></defs><title>Asset 7icon-hospital-</title><g id="Layer_2" data-name="Layer 2"><g id="Layer_1-2" data-name="Layer 1"><rect class="cls-1" x="30.51" y="13.65" width="105.52" height="131.07" rx="3.06" ry="3.06"/><path class="cls-2" d="M27.95,39.42H8.39a8.39,8.39,0,0,1,0-16.78H27.95a8.39,8.39,0,0,1,0,16.78ZM8.39,28a3,3,0,1,0,0,6H27.95a3,3,0,0,0,0-6Z"/><path class="cls-2" d="M27.95,81.89H8.39a8.39,8.39,0,1,1,0-16.78H27.95a8.39,8.39,0,1,1,0,16.78ZM8.39,70.5a3,3,0,1,0,0,6H27.95a3,3,0,1,0,0-6Z"/><path class="cls-2" d="M27.95,124.36H8.39a8.39,8.39,0,0,1,0-16.78H27.95a8.39,8.39,0,0,1,0,16.78ZM8.39,113a3,3,0,1,0,0,6H27.95a3,3,0,0,0,0-6Z"/><path class="cls-2" d="M126.85,147.43H27.45a5.76,5.76,0,0,1-5.76-5.76V119h6.26a3,3,0,0,0,0-6H21.69V76.49h6.26a3,3,0,1,0,0-6H21.69V34h6.26a3,3,0,0,0,0-6H21.69V16.71A5.76,5.76,0,0,1,27.45,11h99.41a5.76,5.76,0,0,1,5.76,5.76v125A5.76,5.76,0,0,1,126.85,147.43ZM27.09,124.36v17.3a.36.36,0,0,0,.36.36h99.41a.36.36,0,0,0,.36-.36v-125a.36.36,0,0,0-.36-.36H27.45a.36.36,0,0,0-.36.36v5.92h.86a8.39,8.39,0,0,1,0,16.78h-.86V65.11h.86a8.39,8.39,0,1,1,0,16.78h-.86v25.69h.86a8.39,8.39,0,0,1,0,16.78Z"/><path class="cls-2" d="M132.4,158.38H21.9A11.89,11.89,0,0,1,10,146.51V119H27.95a3,3,0,0,0,0-6H10V76.49H27.95a3,3,0,1,0,0-6H10V34H27.95a3,3,0,0,0,0-6H10V11.88A11.89,11.89,0,0,1,21.9,0H132.4a11.89,11.89,0,0,1,11.88,11.88V146.51A11.89,11.89,0,0,1,132.4,158.38Zm-117-34v22.14A6.49,6.49,0,0,0,21.9,153H132.4a6.49,6.49,0,0,0,6.48-6.48V11.88A6.49,6.49,0,0,0,132.4,5.4H21.9a6.49,6.49,0,0,0-6.48,6.48V22.63H27.95a8.39,8.39,0,0,1,0,16.78H15.42V65.11H27.95a8.39,8.39,0,1,1,0,16.78H15.42v25.69H27.95a8.39,8.39,0,0,1,0,16.78Z"/><rect class="cls-2" x="49.83" y="34.4" width="65.84" height="5.4"/><rect class="cls-2" x="49.83" y="55.44" width="65.84" height="5.4"/><rect class="cls-2" x="49.83" y="76.49" width="65.84" height="5.4"/><rect class="cls-2" x="49.83" y="97.54" width="65.84" height="5.4"/><rect class="cls-2" x="49.83" y="118.59" width="65.84" height="5.4"/></g></g></svg>