<svg xmlns="http://www.w3.org/2000/svg" viewBox="0 0 152.99 112.35"><defs><style>.cls-1{fill:#54c9f0;}.cls-2{fill:#212120;}</style></defs><title>Asset 5icon-hospital-</title><g id="Layer_2" data-name="Layer 2"><g id="Layer_1-2" data-name="Layer 1"><path class="cls-1" d="M148.47,37.17a34.47,34.47,0,0,0-64.7-16.56,1.32,1.32,0,0,1-2.32,0,34.47,34.47,0,0,0-64.7,16.56s-3.81,52.68,65.12,72.38a2.71,2.71,0,0,0,1.48,0C152.29,89.85,148.47,37.17,148.47,37.17Z"/><path class="cls-2" d="M76.49,112.35a5.39,5.39,0,0,1-1.48-.21c-36.56-10.45-52.86-30.23-60.09-45-7.62-15.54-7.07-28.67-7-30.08A37.17,37.17,0,0,1,76.49,17.27a37.17,37.17,0,0,1,68.56,19.81c.08,1.41.63,14.54-7,30.08-7.23,14.75-23.53,34.54-60.09,45A5.35,5.35,0,0,1,76.49,112.35ZM45.1,5.4A31.81,31.81,0,0,0,13.33,37.17v.2c0,.12-.78,12.85,6.57,27.68C29.62,84.66,49.19,99.15,76.5,107h0c66.06-18.88,63.2-69.08,63.16-69.59v-.2A31.77,31.77,0,0,0,80,21.91a4,4,0,0,1-7.05,0A31.79,31.79,0,0,0,45.1,5.4Z"/><path class="cls-2" d="M92.51,82.91h-.33a4.17,4.17,0,0,1-3.85-3.48L81.34,40,75.17,67a4.23,4.23,0,0,1-8.14.37l-6.88-21L53.31,56.94a4.21,4.21,0,0,1-3.55,1.94H0v-5.4H49.12l7.82-12.14a4.23,4.23,0,0,1,7.57,1l6.34,19.36,6.51-28.49a4.13,4.13,0,0,1,4.23-3.29,4.19,4.19,0,0,1,4.06,3.49l7.19,40.55,6.65-20a4.22,4.22,0,0,1,4-2.89H153v5.4H104.34L96.5,80A4.17,4.17,0,0,1,92.51,82.91Z"/></g></g></svg>