<svg xmlns="http://www.w3.org/2000/svg" viewBox="0 0 127.43 127.43"><defs><style>.cls-1{fill:#fff;}</style></defs><title>Asset 2</title><g id="Layer_2" data-name="Layer 2"><g id="Layer_1-2" data-name="Layer 1"><path class="cls-1" d="M63.71,0a63.71,63.71,0,1,0,63.71,63.71A63.71,63.71,0,0,0,63.71,0ZM85.1,68.73,56.85,85.22a6.91,6.91,0,0,1-3.46,1,5,5,0,0,1-2.29-.55l-.4.23v-.47a5.93,5.93,0,0,1-2.5-5.2V47.18a5.93,5.93,0,0,1,2.5-5.2v-.47l.4.24a5.93,5.93,0,0,1,5.75.46L85.1,58.7a6,6,0,0,1,3.24,4.79l.39.23-.39.23A6,6,0,0,1,85.1,68.73Z"/></g></g></svg>