<svg xmlns="http://www.w3.org/2000/svg" viewBox="0 0 158.38 158.38"><defs><style>.cls-1{fill:#54c9f0;}.cls-2{fill:#212120;}</style></defs><title>Asset 11icon-hospital-</title><g id="Layer_2" data-name="Layer 2"><g id="Layer_1-2" data-name="Layer 1"><path class="cls-1" d="M96.42,47.43V69.84H74.2V47.43a3.31,3.31,0,0,0-3.31-3.31H58.81a3.31,3.31,0,0,0-3.31,3.31V111a3.31,3.31,0,0,0,3.31,3.31H70.89A3.31,3.31,0,0,0,74.2,111V88.55H96.42V111a3.31,3.31,0,0,0,3.31,3.31h12.08a3.31,3.31,0,0,0,3.31-3.31V47.43a3.31,3.31,0,0,0-3.31-3.31H99.73A3.31,3.31,0,0,0,96.42,47.43Z"/><path class="cls-2" d="M146.51,158.38H11.88A11.89,11.89,0,0,1,0,146.51V11.88A11.89,11.89,0,0,1,11.88,0H146.51a11.89,11.89,0,0,1,11.88,11.88V146.51A11.89,11.89,0,0,1,146.51,158.38ZM11.88,5.4A6.49,6.49,0,0,0,5.4,11.88V146.51A6.49,6.49,0,0,0,11.88,153H146.51a6.49,6.49,0,0,0,6.48-6.48V11.88a6.49,6.49,0,0,0-6.48-6.48Z"/><path class="cls-2" d="M17.65,50.8h0A5.78,5.78,0,0,1,11.87,45V17.63a5.77,5.77,0,0,1,5.76-5.76H45a5.76,5.76,0,0,1,4.07,9.83L21.7,49.11A5.69,5.69,0,0,1,17.65,50.8Zm0-33.53a.36.36,0,0,0-.36.36V45a.37.37,0,0,0,.38.37.31.31,0,0,0,.23-.11L45.29,17.89a.36.36,0,0,0-.26-.62Z"/><path class="cls-2" d="M140.73,50.8h0a5.7,5.7,0,0,1-4-1.69L109.27,21.7a5.76,5.76,0,0,1,4.07-9.83h27.41a5.77,5.77,0,0,1,5.76,5.76V45a5.68,5.68,0,0,1-1.81,4.2A5.8,5.8,0,0,1,140.73,50.8ZM113.35,17.27a.36.36,0,0,0-.26.62L140.5,45.29a.31.31,0,0,0,.23.11h0a.44.44,0,0,0,.29-.11.31.31,0,0,0,.09-.25V17.63a.36.36,0,0,0-.36-.36Z"/><path class="cls-2" d="M45,146.51H17.63a5.77,5.77,0,0,1-5.76-5.76V113.35a5.78,5.78,0,0,1,5.78-5.76,5.69,5.69,0,0,1,4,1.69l27.41,27.41A5.76,5.76,0,0,1,45,146.51ZM17.65,113a.37.37,0,0,0-.38.37v27.41a.36.36,0,0,0,.36.36H45a.36.36,0,0,0,.26-.62L17.89,113.09A.31.31,0,0,0,17.65,113Z"/><path class="cls-2" d="M140.75,146.51H113.35a5.76,5.76,0,0,1-4.07-9.83l27.41-27.41a5.69,5.69,0,0,1,4-1.69,5.78,5.78,0,0,1,5.78,5.77v27.41A5.77,5.77,0,0,1,140.75,146.51Zm0-33.53a.31.31,0,0,0-.23.11L113.09,140.5a.36.36,0,0,0,.26.62h27.41a.36.36,0,0,0,.36-.36V113.35A.37.37,0,0,0,140.73,113Z"/><path class="cls-2" d="M105.7,117H93.62a6,6,0,0,1-6-6V91.24H70.78V111a6,6,0,0,1-6,6H52.69a6,6,0,0,1-6-6V47.43a6,6,0,0,1,6-6H64.77a6,6,0,0,1,6,6V67.14H87.6V47.43a6,6,0,0,1,6-6H105.7a6,6,0,0,1,6,6V111A6,6,0,0,1,105.7,117ZM65.38,85.85H93V111a.62.62,0,0,0,.62.62H105.7a.62.62,0,0,0,.62-.62V47.43a.62.62,0,0,0-.62-.62H93.62a.62.62,0,0,0-.62.62V72.54H65.38V47.43a.62.62,0,0,0-.62-.62H52.69a.62.62,0,0,0-.62.62V111a.62.62,0,0,0,.62.62H64.77a.62.62,0,0,0,.62-.62Z"/></g></g></svg>